Selawik-Light.ufo
<glyph name="exclam" format="1">
  <advance width="582"/>
  <unicode hex="0021"/>
  <outline>
    <contour>
      <point x="326" y="294" type="line"/>
      <point x="345" y="1434" type="line"/>
      <point x="233" y="1434" type="line"/>
      <point x="251" y="294" type="line"/>
    </contour>
    <component base="period" xOffset="62"/>
  </outline>
</glyph>
<glyph name="quotedbl" format="1">
  <advance width="686"/>
  <unicode hex="0022"/>
  <outline>
    <contour>
      <point x="511" y="1000" type="line"/>
      <point x="511" y="1468" type="line"/>
      <point x="425" y="1468" type="line"/>
      <point x="425" y="1000" type="line"/>
    </contour>
    <contour>
      <point x="263" y="1000" type="line"/>
      <point x="263" y="1468" type="line"/>
      <point x="177" y="1468" type="line"/>
      <point x="177" y="1000" type="line"/>
    </contour>
  </outline>
</glyph>
<glyph name="numbersign" format="1">
  <advance width="1237"/>
  <unicode hex="0023"/>
  <outline>
    <contour>
      <point x="680" y="123" type="line"/>
      <point x="961" y="1438" type="line"/>
      <point x="874" y="1438" type="line"/>
      <point x="593" y="123" type="line"/>
    </contour>
    <contour>
      <point x="1051" y="518" type="line"/>
      <point x="1070" y="605" type="line"/>
      <point x="68" y="605" type="line"/>
      <point x="49" y="518" type="line"/>
    </contour>
    <contour>
      <point x="332" y="119" type="line"/>
      <point x="610" y="1434" type="line"/>
      <point x="527" y="1434" type="line"/>
      <point x="252" y="119" type="line"/>
    </contour>
    <contour>
      <point x="1131" y="945" type="line"/>
      <point x="1150" y="1032" type="line"/>
      <point x="148" y="1032" type="line"/>
      <point x="129" y="945" type="line"/>
    </contour>
  </outline>
</glyph>
<glyph name="dollar" format="1">
  <advance width="1055"/>
  <unicode hex="0024"/>
  <outline>
    <contour>
      <point x="566" y="-207" type="line"/>
      <point x="566" y="1614" type="line"/>
      <point x="489" y="1614" type="line"/>
      <point x="489" y="-207" type="line"/>
    </contour>
    <component base="S"/>
  </outline>
</glyph>
<glyph name="quotesingle" format="1">
  <advance width="438"/>
  <unicode hex="0027"/>
  <outline>
    <contour>
      <point x="263" y="1000" type="line"/>
      <point x="263" y="1468" type="line"/>
      <point x="177" y="1468" type="line"/>
      <point x="177" y="1000" type="line"/>
    </contour>
  </outline>
</glyph>
<glyph name="parenleft" format="1">
  <advance width="578"/>
  <unicode hex="0028"/>
  <outline>
    <contour>
      <point x="499" y="-256" type="line"/>
      <point x="329" y="-18"/>
      <point x="244" y="249"/>
      <point x="244" y="549" type="curve" smooth="yes"/>
      <point x="244" y="853"/>
      <point x="325" y="1120"/>
      <point x="487" y="1354" type="curve"/>
      <point x="441" y="1404" type="line"/>
      <point x="245" y="1175"/>
      <point x="148" y="891"/>
      <point x="148" y="549" type="curve" smooth="yes"/>
      <point x="148" y="196"/>
      <point x="248" y="-87"/>
      <point x="451" y="-306" type="curve"/>
    </contour>
  </outline>
</glyph>
<glyph name="asterisk" format="1">
  <advance width="831"/>
  <unicode hex="002A"/>
  <outline>
    <contour>
      <point x="433" y="1049" type="line"/>
      <point x="752" y="1210" type="line"/>
      <point x="699" y="1302" type="line"/>
      <point x="400" y="1107" type="line"/>
      <point x="82" y="946" type="line"/>
      <point x="135" y="854" type="line"/>
    </contour>
    <contour>
      <point x="752" y="946" type="line"/>
      <point x="434" y="1106" type="line"/>
      <point x="135" y="1302" type="line"/>
      <point x="82" y="1210" type="line"/>
      <point x="401" y="1049" type="line"/>
      <point x="699" y="854" type="line"/>
    </contour>
    <contour>
      <point x="470" y="722" type="line"/>
      <point x="450" y="1078" type="line"/>
      <point x="470" y="1434" type="line"/>
      <point x="364" y="1434" type="line"/>
      <point x="384" y="1079" type="line"/>
      <point x="364" y="722" type="line"/>
    </contour>
  </outline>
</glyph>
<glyph name="plus" format="1">
  <advance width="1331"/>
  <unicode hex="002B"/>
  <outline>
    <contour>
      <point x="709" y="143" type="line"/>
      <point x="709" y="555" type="line"/>
      <point x="1120" y="555" type="line"/>
      <point x="1120" y="639" type="line"/>
      <point x="709" y="639" type="line"/>
      <point x="709" y="1051" type="line"/>
      <point x="625" y="1051" type="line"/>
      <point x="625" y="639" type="line"/>
      <point x="213" y="639" type="line"/>
      <point x="213" y="555" type="line"/>
      <point x="625" y="555" type="line"/>
      <point x="625" y="143" type="line"/>
    </contour>
  </outline>
</glyph>
<glyph name="comma" format="1">
  <advance width="455"/>
  <unicode hex="002C"/>
  <outline>
    <contour>
      <point x="234" y="-111"/>
      <point x="276" y="84"/>
      <point x="296" y="228" type="curve"/>
      <point x="197" y="228" type="line"/>
      <point x="181" y="97"/>
      <point x="166" y="-2"/>
      <point x="59" y="-214" type="curve"/>
      <point x="129" y="-264" type="line"/>
    </contour>
  </outline>
</glyph>
<glyph name="hyphen" format="1">
  <advance width="815"/>
  <unicode hex="002D"/>
  <outline>
    <contour>
      <point x="692" y="442" type="line"/>
      <point x="692" y="532" type="line"/>
      <point x="145" y="532" type="line"/>
      <point x="145" y="442" type="line"/>
    </contour>
  </outline>
</glyph>
<glyph name="period" format="1">
  <advance width="455"/>
  <unicode hex="002E"/>
  <outline>
    <contour>
      <point x="275" y="-22"/>
      <point x="309" y="15"/>
      <point x="309" y="64" type="curve" smooth="yes"/>
      <point x="309" y="111"/>
      <point x="275" y="146"/>
      <point x="229" y="146" type="curve" smooth="yes"/>
      <point x="182" y="146"/>
      <point x="147" y="111"/>
      <point x="147" y="64" type="curve" smooth="yes"/>
      <point x="147" y="15"/>
      <point x="182" y="-22"/>
      <point x="229" y="-22" type="curve" smooth="yes"/>
    </contour>
  </outline>
</glyph>
<glyph name="zero" format="1">
  <advance width="1055"/>
  <unicode hex="0030"/>
  <outline>
    <contour>
      <point x="796" y="-27"/>
      <point x="961" y="246"/>
      <point x="961" y="722" type="curve" smooth="yes"/>
      <point x="961" y="1189"/>
      <point x="807" y="1456"/>
      <point x="539" y="1456" type="curve"/>
      <point x="539" y="1458" type="line"/>
      <point x="257" y="1458"/>
      <point x="95" y="1177"/>
      <point x="95" y="687" type="curve" smooth="yes"/>
      <point x="95" y="233"/>
      <point x="245" y="-27"/>
      <point x="508" y="-27" type="curve" smooth="yes"/>
    </contour>
    <contour>
      <point x="315" y="53"/>
      <point x="195" y="286"/>
      <point x="195" y="694" type="curve" smooth="yes"/>
      <point x="195" y="1129"/>
      <point x="318" y="1378"/>
      <point x="532" y="1378" type="curve" smooth="yes"/>
      <point x="742" y="1378"/>
      <point x="862" y="1133"/>
      <point x="862" y="706" type="curve" smooth="yes"/>
      <point x="862" y="292"/>
      <point x="740" y="54"/>
      <point x="526" y="54" type="curve"/>
      <point x="525" y="53" type="line"/>
    </contour>
  </outline>
</glyph>
<glyph name="one" format="1">
  <advance width="730"/>
  <unicode hex="0031"/>
  <outline>
    <contour>
      <point x="526" y="-1" type="line"/>
      <point x="525" y="1466" type="line"/>
      <point x="492" y="1466" type="line"/>
      <point x="96" y="1320" type="line"/>
      <point x="125" y="1237" type="line"/>
      <point x="434" y="1344" type="line"/>
      <point x="434" y="-1" type="line"/>
    </contour>
  </outline>
</glyph>
<glyph name="two" format="1">
  <advance width="1055"/>
  <unicode hex="0032"/>
  <outline>
    <contour>
      <point x="909" y="0" type="line"/>
      <point x="909" y="84" type="line"/>
      <point x="200" y="84" type="line"/>
      <point x="200" y="572"/>
      <point x="894" y="570"/>
      <point x="894" y="1073" type="curve" smooth="yes"/>
      <point x="894" y="1612"/>
      <point x="243" y="1441"/>
      <point x="113" y="1418" type="curve"/>
      <point x="129" y="1319" type="line"/>
      <point x="294" y="1348"/>
      <point x="786" y="1486"/>
      <point x="786" y="1058" type="curve" smooth="yes"/>
      <point x="786" y="640"/>
      <point x="94" y="631"/>
      <point x="94" y="61" type="curve"/>
      <point x="94" y="-7" type="line"/>
    </contour>
  </outline>
</glyph>
<glyph name="three" format="1">
  <advance width="1055"/>
  <unicode hex="0033"/>
  <outline>
    <contour>
      <point x="233" y="-14"/>
      <point x="891" y="-156"/>
      <point x="891" y="405" type="curve" smooth="yes"/>
      <point x="891" y="568"/>
      <point x="788" y="725"/>
      <point x="585" y="747" type="curve"/>
      <point x="585" y="751" type="line"/>
      <point x="755" y="804"/>
      <point x="842" y="923"/>
      <point x="842" y="1115" type="curve" smooth="yes"/>
      <point x="842" y="1574"/>
      <point x="304" y="1450"/>
      <point x="190" y="1431" type="curve"/>
      <point x="201" y="1338" type="line"/>
      <point x="319" y="1360"/>
      <point x="738" y="1484"/>
      <point x="738" y="1074" type="curve" smooth="yes"/>
      <point x="738" y="866"/>
      <point x="573" y="790"/>
      <point x="328" y="790" type="curve"/>
      <point x="334" y="691" type="line"/>
      <point x="602" y="691"/>
      <point x="789" y="614"/>
      <point x="789" y="390" type="curve" smooth="yes"/>
      <point x="789" y="-24"/>
      <point x="307" y="69"/>
      <point x="157" y="113" type="curve"/>
      <point x="139" y="19" type="line"/>
    </contour>
  </outline>
</glyph>
<glyph name="four" format="1">
  <advance width="1087"/>
  <unicode hex="0034"/>
  <outline>
    <contour>
      <point x="826" y="-1" type="line"/>
      <point x="826" y="354" type="line"/>
      <point x="1050" y="354" type="line"/>
      <point x="1050" y="436" type="line"/>
      <point x="826" y="436" type="line"/>
      <point x="826" y="1433" type="line"/>
      <point x="675" y="1434" type="line"/>
      <point x="50" y="428" type="line"/>
      <point x="50" y="354" type="line"/>
      <point x="734" y="354" type="line"/>
      <point x="734" y="-1" type="line"/>
    </contour>
    <contour>
      <point x="734" y="1355" type="line"/>
      <point x="734" y="436" type="line"/>
      <point x="160" y="436" type="line"/>
    </contour>
  </outline>
</glyph>
<glyph name="five" format="1">
  <advance width="1055"/>
  <unicode hex="0035"/>
  <outline>
    <contour>
      <point x="202" y="-11"/>
      <point x="907" y="-181"/>
      <point x="907" y="441" type="curve" smooth="yes"/>
      <point x="907" y="679"/>
      <point x="756" y="860"/>
      <point x="422" y="860" type="curve" smooth="yes"/>
      <point x="391" y="860"/>
      <point x="332" y="855"/>
      <point x="295" y="845" type="curve"/>
      <point x="329" y="1350" type="line"/>
      <point x="823" y="1350" type="line"/>
      <point x="823" y="1434" type="line"/>
      <point x="240" y="1434" type="line"/>
      <point x="191" y="748" type="line"/>
      <point x="248" y="759"/>
      <point x="380" y="770"/>
      <point x="432" y="770" type="curve" smooth="yes"/>
      <point x="656" y="770"/>
      <point x="814" y="665"/>
      <point x="814" y="428" type="curve" smooth="yes"/>
      <point x="814" y="-46"/>
      <point x="278" y="51"/>
      <point x="161" y="127" type="curve"/>
      <point x="130" y="36" type="line"/>
    </contour>
  </outline>
</glyph>
<glyph name="six" format="1">
  <advance width="1055"/>
  <unicode hex="0036"/>
  <outline>
    <contour>
      <point x="776" y="-26"/>
      <point x="972" y="140"/>
      <point x="972" y="456" type="curve" smooth="yes"/>
      <point x="972" y="670"/>
      <point x="858" y="900"/>
      <point x="562" y="900" type="curve" smooth="yes"/>
      <point x="331" y="900"/>
      <point x="228" y="719"/>
      <point x="196" y="618" type="curve"/>
      <point x="211" y="491" type="line"/>
      <point x="229" y="596"/>
      <point x="327" y="807"/>
      <point x="556" y="807" type="curve" smooth="yes"/>
      <point x="793" y="807"/>
      <point x="875" y="617"/>
      <point x="875" y="432" type="curve" smooth="yes"/>
      <point x="875" y="237"/>
      <point x="773" y="55"/>
      <point x="549" y="55" type="curve" smooth="yes"/>
      <point x="236" y="55"/>
      <point x="224" y="415"/>
      <point x="222" y="621" type="curve" smooth="yes"/>
      <point x="217" y="1108"/>
      <point x="306" y="1455"/>
      <point x="847" y="1348" type="curve"/>
      <point x="866" y="1432" type="line"/>
      <point x="357" y="1531"/>
      <point x="121" y="1313"/>
      <point x="121" y="630" type="curve" smooth="yes"/>
      <point x="121" y="353"/>
      <point x="168" y="-26"/>
      <point x="541" y="-26" type="curve" smooth="yes"/>
    </contour>
  </outline>
</glyph>
<glyph name="seven" format="1">
  <advance width="1022"/>
  <unicode hex="0037"/>
  <outline>
    <contour>
      <point x="451" y="0" type="line"/>
      <point x="952" y="1341" type="line"/>
      <point x="950" y="1434" type="line"/>
      <point x="88" y="1434" type="line"/>
      <point x="88" y="1347" type="line"/>
      <point x="857" y="1347" type="line"/>
      <point x="345" y="0" type="line"/>
    </contour>
  </outline>
</glyph>
<glyph name="eight" format="1">
  <advance width="1055"/>
  <unicode hex="0038"/>
  <outline>
    <contour>
      <point x="785" y="-23"/>
      <point x="953" y="145"/>
      <point x="953" y="400" type="curve" smooth="yes"/>
      <point x="953" y="564"/>
      <point x="865" y="713"/>
      <point x="732" y="776" type="curve"/>
      <point x="834" y="846"/>
      <point x="901" y="971"/>
      <point x="901" y="1090" type="curve" smooth="yes"/>
      <point x="901" y="1312"/>
      <point x="754" y="1458"/>
      <point x="531" y="1458" type="curve" smooth="yes"/>
      <point x="306" y="1458"/>
      <point x="158" y="1312"/>
      <point x="158" y="1090" type="curve" smooth="yes"/>
      <point x="158" y="970"/>
      <point x="228" y="845"/>
      <point x="333" y="776" type="curve"/>
      <point x="196" y="715"/>
      <point x="105" y="565"/>
      <point x="105" y="400" type="curve" smooth="yes"/>
      <point x="105" y="145"/>
      <point x="274" y="-23"/>
      <point x="530" y="-23" type="curve" smooth="yes"/>
    </contour>
    <contour>
      <point x="336" y="70"/>
      <point x="205" y="207"/>
      <point x="205" y="414" type="curve" smooth="yes"/>
      <point x="205" y="596"/>
      <point x="336" y="716"/>
      <point x="534" y="716" type="curve" smooth="yes"/>
      <point x="726" y="716"/>
      <point x="853" y="596"/>
      <point x="853" y="413" type="curve" smooth="yes"/>
      <point x="853" y="206"/>
      <point x="727" y="70"/>
      <point x="535" y="70" type="curve" smooth="yes"/>
    </contour>
    <contour>
      <point x="362" y="811"/>
      <point x="248" y="918"/>
      <point x="248" y="1081" type="curve" smooth="yes"/>
      <point x="248" y="1255"/>
      <point x="363" y="1370"/>
      <point x="538" y="1370" type="curve" smooth="yes"/>
      <point x="698" y="1370"/>
      <point x="803" y="1255"/>
      <point x="803" y="1081" type="curve" smooth="yes"/>
      <point x="803" y="918"/>
      <point x="697" y="811"/>
      <point x="536" y="811" type="curve" smooth="yes"/>
    </contour>
  </outline>
</glyph>
<glyph name="nine" format="1">
  <advance width="1055"/>
  <unicode hex="0039"/>
  <outline>
    <contour>
      <point x="839" y="-117"/>
      <point x="950" y="287"/>
      <point x="950" y="799" type="curve" smooth="yes"/>
      <point x="950" y="1206"/>
      <point x="861" y="1459"/>
      <point x="548" y="1459" type="curve" smooth="yes"/>
      <point x="257" y="1459"/>
      <point x="106" y="1260"/>
      <point x="106" y="988" type="curve" smooth="yes"/>
      <point x="106" y="684"/>
      <point x="289" y="530"/>
      <point x="484" y="530" type="curve" smooth="yes"/>
      <point x="698" y="530"/>
      <point x="809" y="620"/>
      <point x="880" y="800" type="curve"/>
      <point x="866" y="941" type="line"/>
      <point x="812" y="728"/>
      <point x="698" y="623"/>
      <point x="520" y="623" type="curve" smooth="yes"/>
      <point x="323" y="623"/>
      <point x="199" y="748"/>
      <point x="199" y="1011" type="curve" smooth="yes"/>
      <point x="199" y="1191"/>
      <point x="297" y="1371"/>
      <point x="537" y="1371" type="curve" smooth="yes"/>
      <point x="767" y="1371"/>
      <point x="845" y="1215"/>
      <point x="847" y="815" type="curve"/>
      <point x="848" y="300"/>
      <point x="762" y="-21"/>
      <point x="245" y="95" type="curve"/>
      <point x="235" y="-4" type="line"/>
    </contour>
  </outline>
</glyph>
<glyph name="colon" format="1">
  <advance width="455"/>
  <unicode hex="003A"/>
  <outline>
    <contour>
      <point x="272" y="831"/>
      <point x="309" y="868"/>
      <point x="309" y="913" type="curve" smooth="yes"/>
      <point x="309" y="958"/>
      <point x="272" y="992"/>
      <point x="227" y="992" type="curve" smooth="yes"/>
      <point x="182" y="992"/>
      <point x="147" y="958"/>
      <point x="147" y="913" type="curve" smooth="yes"/>
      <point x="147" y="868"/>
      <point x="182" y="831"/>
      <point x="227" y="831" type="curve" smooth="yes"/>
    </contour>
    <contour>
      <point x="272" y="-18"/>
      <point x="309" y="18"/>
      <point x="309" y="63" type="curve" smooth="yes"/>
      <point x="309" y="110"/>
      <point x="272" y="143"/>
      <point x="227" y="143" type="curve" smooth="yes"/>
      <point x="182" y="143"/>
      <point x="147" y="110"/>
      <point x="147" y="63" type="curve" smooth="yes"/>
      <point x="147" y="18"/>
      <point x="182" y="-18"/>
      <point x="227" y="-18" type="curve" smooth="yes"/>
    </contour>
  </outline>
</glyph>
<glyph name="semicolon" format="1">
  <advance width="455"/>
  <unicode hex="003B"/>
  <outline>
    <contour>
      <point x="281" y="881"/>
      <point x="317" y="918"/>
      <point x="317" y="963" type="curve" smooth="yes"/>
      <point x="317" y="1008"/>
      <point x="281" y="1042"/>
      <point x="236" y="1042" type="curve" smooth="yes"/>
      <point x="189" y="1042"/>
      <point x="156" y="1008"/>
      <point x="156" y="963" type="curve" smooth="yes"/>
      <point x="156" y="918"/>
      <point x="189" y="881"/>
      <point x="236" y="881" type="curve" smooth="yes"/>
    </contour>
    <component base="comma"/>
  </outline>
</glyph>
<glyph name="question" format="1">
  <advance width="881"/>
  <unicode hex="003F"/>
  <outline>
    <contour>
      <point x="456" y="360" type="line"/>
      <point x="456" y="528" type="line" smooth="yes"/>
      <point x="456" y="832"/>
      <point x="789" y="783"/>
      <point x="789" y="1123" type="curve" smooth="yes"/>
      <point x="789" y="1336"/>
      <point x="658" y="1458"/>
      <point x="430" y="1458" type="curve" smooth="yes"/>
      <point x="329" y="1458"/>
      <point x="222" y="1444"/>
      <point x="134" y="1420" type="curve"/>
      <point x="161" y="1333" type="line"/>
      <point x="258" y="1355"/>
      <point x="351" y="1368"/>
      <point x="417" y="1368" type="curve" smooth="yes"/>
      <point x="593" y="1367"/>
      <point x="694" y="1276"/>
      <point x="695" y="1119" type="curve" smooth="yes"/>
      <point x="698" y="851"/>
      <point x="345" y="883"/>
      <point x="345" y="522" type="curve"/>
      <point x="345" y="360" type="line"/>
    </contour>
    <component base="period" xOffset="185"/>
  </outline>
</glyph>
<glyph name="at" format="1">
  <advance width="1933"/>
  <unicode hex="0040"/>
  <outline>
    <contour>
      <point x="1768" y="1093"/>
      <point x="1535" y="1302"/>
      <point x="988" y="1302" type="curve" smooth="yes"/>
      <point x="413" y="1302"/>
      <point x="168" y="1045"/>
      <point x="168" y="442" type="curve" smooth="yes"/>
      <point x="168" y="-112"/>
      <point x="416" y="-348"/>
      <point x="997" y="-348" type="curve" smooth="yes"/>
      <point x="1255" y="-348"/>
      <point x="1420" y="-311"/>
      <point x="1547" y="-225" type="curve"/>
      <point x="1517" y="-154" type="line"/>
      <point x="1357" y="-228"/>
      <point x="1210" y="-260"/>
      <point x="1025" y="-260" type="curve" smooth="yes"/>
      <point x="485" y="-260"/>
      <point x="255" y="-52"/>
      <point x="255" y="438" type="curve" smooth="yes"/>
      <point x="255" y="982"/>
      <point x="474" y="1214"/>
      <point x="990" y="1214" type="curve" smooth="yes"/>
      <point x="1470" y="1214"/>
      <point x="1675" y="1028"/>
      <point x="1675" y="591" type="curve" smooth="yes"/>
      <point x="1675" y="209"/>
      <point x="1584" y="47"/>
      <point x="1370" y="47" type="curve"/>
      <point x="1352" y="-39" type="line"/>
      <point x="1644" y="-39"/>
      <point x="1768" y="152"/>
      <point x="1768" y="602" type="curve" smooth="yes"/>
    </contour>
    <component base="a" xOffset="476"/>
  </outline>
</glyph>
<glyph name="A" format="1">
  <advance width="1288"/>
  <unicode hex="0041"/>
  <outline>
    <contour>
      <point x="169" y="0" type="line"/>
      <point x="618" y="1220" type="line"/>
      <point x="623" y="1232"/>
      <point x="639" y="1296"/>
      <point x="642" y="1316" type="curve"/>
      <point x="646" y="1316" type="line"/>
      <point x="650" y="1294"/>
      <point x="666" y="1230"/>
      <point x="669" y="1220" type="curve"/>
      <point x="1114" y="0" type="line"/>
      <point x="1229" y="0" type="line"/>
      <point x="692" y="1434" type="line"/>
      <point x="599" y="1434" type="line"/>
      <point x="59" y="0" type="line"/>
    </contour>
    <contour>
      <point x="1063" y="341" type="line"/>
      <point x="1063" y="433" type="line"/>
      <point x="241" y="433" type="line"/>
      <point x="241" y="341" type="line"/>
    </contour>
    <contour>
      <point x="1159" y="10" type="move" name="ogonek"/>
    </contour>
    <contour>
      <point x="644" y="0" type="move" name="bottom"/>
    </contour>
    <contour>
      <point x="644" y="1384" type="move" name="top"/>
    </contour>
  </outline>
</glyph>
<glyph name="B" format="1">
  <advance width="1114"/>
  <unicode hex="0042"/>
  <outline>
    <contour>
      <point x="827" y="-1"/>
      <point x="999" y="158"/>
      <point x="999" y="412" type="curve" smooth="yes"/>
      <point x="999" y="605"/>
      <point x="905" y="741"/>
      <point x="752" y="763" type="curve"/>
      <point x="752" y="767" type="line"/>
      <point x="864" y="818"/>
      <point x="930" y="943"/>
      <point x="930" y="1107" type="curve" smooth="yes"/>
      <point x="930" y="1316"/>
      <point x="787" y="1435"/>
      <point x="596" y="1435" type="curve" smooth="yes"/>
      <point x="184" y="1435" type="line"/>
      <point x="184" y="1" type="line"/>
      <point x="606" y="0" type="line" smooth="yes"/>
    </contour>
    <contour>
      <point x="284" y="699" type="line"/>
      <point x="550" y="699" type="line" smooth="yes"/>
      <point x="757" y="699"/>
      <point x="897" y="624"/>
      <point x="897" y="415" type="curve" smooth="yes"/>
      <point x="897" y="198"/>
      <point x="772" y="90"/>
      <point x="586" y="90" type="curve" smooth="yes"/>
      <point x="284" y="90" type="line"/>
    </contour>
    <contour>
      <point x="283" y="1343" type="line"/>
      <point x="549" y="1343" type="line" smooth="yes"/>
      <point x="718" y="1343"/>
      <point x="827" y="1272"/>
      <point x="827" y="1074" type="curve" smooth="yes"/>
      <point x="827" y="883"/>
      <point x="707" y="788"/>
      <point x="529" y="788" type="curve" smooth="yes"/>
      <point x="283" y="788" type="line"/>
    </contour>
    <contour>
      <point x="557" y="1434" type="move" name="top"/>
    </contour>
    <contour>
      <point x="557" y="0" type="move" name="bottom"/>
    </contour>
  </outline>
</glyph>
<glyph name="C" format="1">
  <advance width="1272"/>
  <unicode hex="0043"/>
  <outline>
    <contour>
      <point x="886" y="-20"/>
      <point x="1063" y="20"/>
      <point x="1180" y="65" type="curve"/>
      <point x="1148" y="149" type="line"/>
      <point x="998" y="97"/>
      <point x="854" y="67"/>
      <point x="752" y="67" type="curve" smooth="yes"/>
      <point x="406" y="67"/>
      <point x="209" y="311"/>
      <point x="209" y="721" type="curve" smooth="yes"/>
      <point x="209" y="1132"/>
      <point x="433" y="1367"/>
      <point x="823" y="1367" type="curve" smooth="yes"/>
      <point x="943" y="1367"/>
      <point x="1042" y="1352"/>
      <point x="1123" y="1321" type="curve"/>
      <point x="1149" y="1416" type="line"/>
      <point x="1060" y="1439"/>
      <point x="952" y="1460"/>
      <point x="825" y="1460" type="curve" smooth="yes"/>
      <point x="370" y="1460"/>
      <point x="109" y="1188"/>
      <point x="109" y="713" type="curve" smooth="yes"/>
      <point x="109" y="247"/>
      <point x="335" y="-20"/>
      <point x="729" y="-20" type="curve" smooth="yes"/>
    </contour>
    <contour>
      <point x="716" y="1384" type="move" name="top"/>
    </contour>
    <contour>
      <point x="716" y="0" type="move" name="bottom"/>
    </contour>
  </outline>
</glyph>
<glyph name="D" format="1">
  <advance width="1380"/>
  <unicode hex="0044"/>
  <outline>
    <contour>
      <point x="568" y="0" type="line" smooth="yes"/>
      <point x="989" y="2"/>
      <point x="1271" y="280"/>
      <point x="1271" y="734" type="curve" smooth="yes"/>
      <point x="1271" y="1212"/>
      <point x="1033" y="1432"/>
      <point x="583" y="1432" type="curve" smooth="yes"/>
      <point x="184" y="1432" type="line"/>
      <point x="184" y="-2" type="line"/>
    </contour>
    <contour>
      <point x="283" y="1342" type="line"/>
      <point x="579" y="1344" type="line" smooth="yes"/>
      <point x="961" y="1344"/>
      <point x="1166" y="1148"/>
      <point x="1166" y="728" type="curve" smooth="yes"/>
      <point x="1166" y="321"/>
      <point x="948" y="90"/>
      <point x="570" y="90" type="curve" smooth="yes"/>
      <point x="283" y="90" type="line"/>
    </contour>
    <contour>
      <point x="690" y="717" type="move" name="center"/>
    </contour>
    <contour>
      <point x="690" y="0" type="move" name="bottom"/>
    </contour>
    <contour>
      <point x="640" y="1384" type="move" name="top"/>
    </contour>
  </outline>
</glyph>
<glyph name="E" format="1">
  <advance width="1024"/>
  <unicode hex="0045"/>
  <outline>
    <contour>
      <point x="887" y="0" type="line"/>
      <point x="887" y="90" type="line"/>
      <point x="283" y="90" type="line"/>
      <point x="283" y="678" type="line"/>
      <point x="793" y="678" type="line"/>
      <point x="793" y="768" type="line"/>
      <point x="283" y="768" type="line"/>
      <point x="283" y="1343" type="line"/>
      <point x="855" y="1343" type="line"/>
      <point x="855" y="1434" type="line"/>
      <point x="184" y="1434" type="line"/>
      <point x="184" y="0" type="line"/>
    </contour>
    <contour>
      <point x="845" y="10" type="move" name="ogonek"/>
    </contour>
    <contour>
      <point x="512" y="0" type="move" name="bottom"/>
    </contour>
    <contour>
      <point x="522" y="1384" type="move" name="top"/>
    </contour>
  </outline>
</glyph>
<glyph name="F" format="1">
  <advance width="952"/>
  <unicode hex="0046"/>
  <outline>
    <contour>
      <point x="283" y="0" type="line"/>
      <point x="283" y="668" type="line"/>
      <point x="792" y="668" type="line"/>
      <point x="792" y="758" type="line"/>
      <point x="283" y="758" type="line"/>
      <point x="283" y="1343" type="line"/>
      <point x="854" y="1343" type="line"/>
      <point x="854" y="1434" type="line"/>
      <point x="184" y="1434" type="line"/>
      <point x="184" y="0" type="line"/>
    </contour>
    <contour>
      <point x="476" y="1434" type="move" name="top"/>
    </contour>
    <contour>
      <point x="476" y="0" type="move" name="bottom"/>
    </contour>
  </outline>
</glyph>
<glyph name="G" format="1">
  <advance width="1368"/>
  <unicode hex="0047"/>
  <outline>
    <contour>
      <point x="936" y="-22"/>
      <point x="1097" y="22"/>
      <point x="1222" y="100" type="curve"/>
      <point x="1221" y="713" type="line"/>
      <point x="768" y="713" type="line"/>
      <point x="768" y="623" type="line"/>
      <point x="1124" y="623" type="line"/>
      <point x="1124" y="154" type="line"/>
      <point x="1036" y="97"/>
      <point x="919" y="65"/>
      <point x="800" y="65" type="curve" smooth="yes"/>
      <point x="425" y="65"/>
      <point x="210" y="301"/>
      <point x="210" y="711" type="curve" smooth="yes"/>
      <point x="210" y="1129"/>
      <point x="432" y="1367"/>
      <point x="820" y="1367" type="curve" smooth="yes"/>
      <point x="925" y="1367"/>
      <point x="1066" y="1350"/>
      <point x="1207" y="1320" type="curve"/>
      <point x="1232" y="1413" type="line"/>
      <point x="1129" y="1434"/>
      <point x="973" y="1459"/>
      <point x="838" y="1459" type="curve" smooth="yes"/>
      <point x="375" y="1459"/>
      <point x="109" y="1183"/>
      <point x="109" y="700" type="curve" smooth="yes"/>
      <point x="109" y="241"/>
      <point x="354" y="-22"/>
      <point x="781" y="-22" type="curve" smooth="yes"/>
    </contour>
    <contour>
      <point x="754" y="1384" type="move" name="top"/>
    </contour>
    <contour>
      <point x="684" y="0" type="move" name="bottom"/>
    </contour>
  </outline>
</glyph>
<glyph name="H" format="1">
  <advance width="1386"/>
  <unicode hex="0048"/>
  <outline>
    <contour>
      <point x="283" y="0" type="line"/>
      <point x="283" y="674" type="line"/>
      <point x="1104" y="674" type="line"/>
      <point x="1104" y="0" type="line"/>
      <point x="1202" y="0" type="line"/>
      <point x="1202" y="1434" type="line"/>
      <point x="1104" y="1434" type="line"/>
      <point x="1104" y="763" type="line"/>
      <point x="283" y="763" type="line"/>
      <point x="283" y="1434" type="line"/>
      <point x="184" y="1434" type="line"/>
      <point x="184" y="0" type="line"/>
    </contour>
    <contour>
      <point x="693" y="717" type="move" name="center"/>
    </contour>
    <contour>
      <point x="693" y="0" type="move" name="bottom"/>
    </contour>
    <contour>
      <point x="693" y="1384" type="move" name="top"/>
    </contour>
  </outline>
</glyph>
<glyph name="I" format="1">
  <advance width="467"/>
  <unicode hex="0049"/>
  <outline>
    <contour>
      <point x="283" y="0" type="line"/>
      <point x="283" y="1434" type="line"/>
      <point x="188" y="1434" type="line"/>
      <point x="188" y="0" type="line"/>
    </contour>
    <contour>
      <point x="238" y="10" type="move" name="ogonek"/>
    </contour>
    <contour>
      <point x="234" y="0" type="move" name="bottom"/>
    </contour>
    <contour>
      <point x="235" y="1374" type="move" name="top"/>
    </contour>
  </outline>
</glyph>
<glyph name="J" format="1">
  <advance width="664"/>
  <unicode hex="004A"/>
  <outline>
    <contour>
      <point x="314" y="-469"/>
      <point x="487" y="-358"/>
      <point x="487" y="-20" type="curve" smooth="yes"/>
      <point x="487" y="1434" type="line"/>
      <point x="392" y="1434" type="line"/>
      <point x="392" y="1434"/>
      <point x="392" y="-9"/>
      <point x="392" y="-9" type="curve"/>
      <point x="391" y="-311"/>
      <point x="261" y="-355"/>
      <point x="79" y="-382" type="curve"/>
      <point x="90" y="-482" type="line"/>
    </contour>
    <contour>
      <point x="332" y="1434" type="move" name="top"/>
    </contour>
    <contour>
      <point x="332" y="0" type="move" name="bottom"/>
    </contour>
  </outline>
</glyph>
<glyph name="K" format="1">
  <advance width="1079"/>
  <unicode hex="004B"/>
  <outline>
    <contour>
      <point x="1036" y="1459" type="line"/>
      <point x="921" y="1474" type="line"/>
      <point x="369" y="795" type="line"/>
      <point x="333" y="751"/>
      <point x="298" y="708"/>
      <point x="262" y="664" type="curve"/>
      <point x="205" y="443" type="line"/>
    </contour>
    <contour>
      <point x="283" y="0" type="line"/>
      <point x="283" y="1434" type="line" smooth="yes"/>
      <point x="185" y="1434" type="line"/>
      <point x="185" y="0" type="line"/>
    </contour>
    <contour>
      <point x="1057" y="0" type="line"/>
      <point x="549" y="905" type="line"/>
      <point x="459" y="841" type="line"/>
      <point x="936" y="0" type="line"/>
    </contour>
    <contour>
      <point x="540" y="1434" type="move" name="top"/>
    </contour>
    <contour>
      <point x="540" y="0" type="move" name="bottom"/>
    </contour>
  </outline>
</glyph>
<glyph name="L" format="1">
  <advance width="938"/>
  <unicode hex="004C"/>
  <outline>
    <contour>
      <point x="858" y="0" type="line"/>
      <point x="858" y="90" type="line"/>
      <point x="283" y="90" type="line"/>
      <point x="283" y="1434" type="line"/>
      <point x="184" y="1434" type="line"/>
      <point x="184" y="0" type="line"/>
    </contour>
    <contour>
      <point x="469" y="717" type="move" name="center"/>
    </contour>
    <contour>
      <point x="229" y="1364" type="move" name="top"/>
    </contour>
    <contour>
      <point x="918" y="1434" type="move" name="topright"/>
    </contour>
    <contour>
      <point x="469" y="0" type="move" name="bottom"/>
    </contour>
  </outline>
</glyph>
<glyph name="M" format="1">
  <advance width="1706"/>
  <unicode hex="004D"/>
  <outline>
    <contour>
      <point x="283" y="0" type="line"/>
      <point x="283" y="962" type="line" smooth="yes"/>
      <point x="283" y="1044"/>
      <point x="283" y="1175"/>
      <point x="278" y="1234" type="curve"/>
      <point x="282" y="1234" type="line"/>
      <point x="287" y="1207"/>
      <point x="295" y="1175"/>
      <point x="304" y="1151" type="curve" smooth="yes"/>
      <point x="840" y="0" type="line"/>
      <point x="872" y="0" type="line"/>
      <point x="1390" y="1119" type="line" smooth="yes"/>
      <point x="1401" y="1143"/>
      <point x="1422" y="1190"/>
      <point x="1434" y="1229" type="curve"/>
      <point x="1438" y="1229" type="line"/>
      <point x="1429" y="1122"/>
      <point x="1427" y="1055"/>
      <point x="1427" y="983" type="curve" smooth="yes"/>
      <point x="1427" y="0" type="line"/>
      <point x="1522" y="0" type="line"/>
      <point x="1522" y="1434" type="line"/>
      <point x="1434" y="1434" type="line"/>
      <point x="898" y="268" type="line" smooth="yes"/>
      <point x="885" y="239"/>
      <point x="870" y="186"/>
      <point x="862" y="160" type="curve"/>
      <point x="856" y="160" type="line"/>
      <point x="848" y="179"/>
      <point x="835" y="228"/>
      <point x="815" y="268" type="curve" smooth="yes"/>
      <point x="275" y="1434" type="line"/>
      <point x="184" y="1434" type="line"/>
      <point x="184" y="0" type="line"/>
    </contour>
    <contour>
      <point x="853" y="1434" type="move" name="top"/>
    </contour>
    <contour>
      <point x="853" y="0" type="move" name="bottom"/>
    </contour>
  </outline>
</glyph>
<glyph name="N" format="1">
  <advance width="1452"/>
  <unicode hex="004E"/>
  <outline>
    <contour>
      <point x="284" y="0" type="line"/>
      <point x="284" y="1057" type="line" smooth="yes"/>
      <point x="284" y="1121"/>
      <point x="282" y="1244"/>
      <point x="276" y="1275" type="curve"/>
      <point x="282" y="1275" type="line"/>
      <point x="293" y="1246"/>
      <point x="315" y="1191"/>
      <point x="334" y="1165" type="curve" smooth="yes"/>
      <point x="1190" y="0" type="line"/>
      <point x="1268" y="0" type="line"/>
      <point x="1267" y="1434" type="line"/>
      <point x="1169" y="1434" type="line"/>
      <point x="1169" y="394" type="line" smooth="yes"/>
      <point x="1169" y="321"/>
      <point x="1173" y="216"/>
      <point x="1180" y="164" type="curve"/>
      <point x="1176" y="164" type="line"/>
      <point x="1169" y="180"/>
      <point x="1136" y="251"/>
      <point x="1115" y="280" type="curve" smooth="yes"/>
      <point x="258" y="1435" type="line"/>
      <point x="184" y="1435" type="line"/>
      <point x="184" y="0" type="line"/>
    </contour>
    <contour>
      <point x="726" y="1374" type="move" name="top"/>
    </contour>
    <contour>
      <point x="726" y="0" type="move" name="bottom"/>
    </contour>
  </outline>
</glyph>
<glyph name="O" format="1">
  <advance width="1559"/>
  <unicode hex="004F"/>
  <outline>
    <contour>
      <point x="1180" y="-25"/>
      <point x="1450" y="268"/>
      <point x="1450" y="712" type="curve"/>
      <point x="1453" y="1161"/>
      <point x="1183" y="1457"/>
      <point x="770" y="1457" type="curve" smooth="yes"/>
      <point x="372" y="1457"/>
      <point x="109" y="1161"/>
      <point x="109" y="712" type="curve" smooth="yes"/>
      <point x="109" y="268"/>
      <point x="372" y="-25"/>
      <point x="770" y="-25" type="curve" smooth="yes"/>
    </contour>
    <contour>
      <point x="433" y="65"/>
      <point x="211" y="322"/>
      <point x="211" y="712" type="curve" smooth="yes"/>
      <point x="211" y="1107"/>
      <point x="433" y="1367"/>
      <point x="770" y="1367" type="curve" smooth="yes"/>
      <point x="1117" y="1367"/>
      <point x="1346" y="1107"/>
      <point x="1346" y="713" type="curve"/>
      <point x="1347" y="322"/>
      <point x="1118" y="65"/>
      <point x="770" y="65" type="curve" smooth="yes"/>
    </contour>
    <contour>
      <point x="780" y="717" type="move" name="center"/>
    </contour>
    <contour>
      <point x="780" y="1384" type="move" name="top"/>
    </contour>
    <contour>
      <point x="1539" y="1434" type="move" name="topright"/>
    </contour>
    <contour>
      <point x="780" y="0" type="move" name="bottom"/>
    </contour>
  </outline>
</glyph>
<glyph name="P" format="1">
  <advance width="1114"/>
  <unicode hex="0050"/>
  <outline>
    <contour>
      <point x="283" y="0" type="line"/>
      <point x="283" y="576" type="line"/>
      <point x="539" y="576" type="line" smooth="yes"/>
      <point x="798" y="576"/>
      <point x="985" y="739"/>
      <point x="985" y="1006" type="curve" smooth="yes"/>
      <point x="985" y="1286"/>
      <point x="829" y="1434"/>
      <point x="578" y="1434" type="curve" smooth="yes"/>
      <point x="184" y="1434" type="line"/>
      <point x="184" y="0" type="line"/>
    </contour>
    <contour>
      <point x="282" y="1344" type="line"/>
      <point x="549" y="1345" type="line" smooth="yes"/>
      <point x="761" y="1346"/>
      <point x="885" y="1244"/>
      <point x="885" y="998" type="curve" smooth="yes"/>
      <point x="885" y="774"/>
      <point x="745" y="666"/>
      <point x="527" y="666" type="curve" smooth="yes"/>
      <point x="282" y="666" type="line"/>
    </contour>
    <contour>
      <point x="557" y="1434" type="move" name="top"/>
    </contour>
    <contour>
      <point x="557" y="0" type="move" name="bottom"/>
    </contour>
  </outline>
</glyph>
<glyph name="Q" format="1">
  <advance width="1544"/>
  <unicode hex="0051"/>
  <outline>
    <contour>
      <point x="1467" y="-253" type="line"/>
      <point x="1271" y="-236"/>
      <point x="1103" y="-164"/>
      <point x="1067" y="70" type="curve"/>
      <point x="972" y="20" type="line"/>
      <point x="1030" y="-230"/>
      <point x="1238" y="-336"/>
      <point x="1446" y="-341" type="curve"/>
    </contour>
    <component base="O"/>
    <contour>
      <point x="772" y="1434" type="move" name="top"/>
    </contour>
    <contour>
      <point x="772" y="0" type="move" name="bottom"/>
    </contour>
  </outline>
</glyph>
<glyph name="R" format="1">
  <advance width="1137"/>
  <unicode hex="0052"/>
  <outline>
    <contour>
      <point x="283" y="0" type="line"/>
      <point x="283" y="639" type="line"/>
      <point x="539" y="639" type="line" smooth="yes"/>
      <point x="801" y="639"/>
      <point x="989" y="793"/>
      <point x="989" y="1046" type="curve" smooth="yes"/>
      <point x="989" y="1299"/>
      <point x="831" y="1434"/>
      <point x="578" y="1434" type="curve" smooth="yes"/>
      <point x="184" y="1434" type="line"/>
      <point x="184" y="0" type="line"/>
    </contour>
    <contour>
      <point x="1056" y="0" type="line"/>
      <point x="588" y="704" type="line"/>
      <point x="498" y="661" type="line"/>
      <point x="930" y="0" type="line"/>
    </contour>
    <contour>
      <point x="282" y="1344" type="line"/>
      <point x="549" y="1345" type="line" smooth="yes"/>
      <point x="762" y="1346"/>
      <point x="886" y="1256"/>
      <point x="886" y="1038" type="curve" smooth="yes"/>
      <point x="886" y="830"/>
      <point x="746" y="729"/>
      <point x="527" y="729" type="curve" smooth="yes"/>
      <point x="282" y="729" type="line"/>
    </contour>
    <contour>
      <point x="529" y="1374" type="move" name="top"/>
    </contour>
    <contour>
      <point x="569" y="0" type="move" name="bottom"/>
    </contour>
  </outline>
</glyph>
<glyph name="S" format="1">
  <advance width="1018"/>
  <unicode hex="0053"/>
  <outline>
    <contour>
      <point x="751" y="-10"/>
      <point x="894" y="141"/>
      <point x="895" y="384" type="curve" smooth="yes"/>
      <point x="897" y="827"/>
      <point x="243" y="747"/>
      <point x="246" y="1080" type="curve" smooth="yes"/>
      <point x="248" y="1295"/>
      <point x="418" y="1367"/>
      <point x="602" y="1367" type="curve" smooth="yes"/>
      <point x="704" y="1367"/>
      <point x="762" y="1347"/>
      <point x="813" y="1334" type="curve"/>
      <point x="838" y="1420" type="line"/>
      <point x="769" y="1442"/>
      <point x="692" y="1457"/>
      <point x="599" y="1457" type="curve" smooth="yes"/>
      <point x="342" y="1457"/>
      <point x="147" y="1344"/>
      <point x="146" y="1070" type="curve" smooth="yes"/>
      <point x="144" y="669"/>
      <point x="801" y="734"/>
      <point x="801" y="386" type="curve" smooth="yes"/>
      <point x="801" y="213"/>
      <point x="723" y="74"/>
      <point x="501" y="74" type="curve" smooth="yes"/>
      <point x="397" y="74"/>
      <point x="297" y="95"/>
      <point x="135" y="167" type="curve"/>
      <point x="110" y="78" type="line"/>
      <point x="259" y="15"/>
      <point x="366" y="-12"/>
      <point x="501" y="-11" type="curve" smooth="yes"/>
    </contour>
    <contour>
      <point x="509" y="1384" type="move" name="top"/>
    </contour>
    <contour>
      <point x="489" y="0" type="move" name="bottom"/>
    </contour>
  </outline>
</glyph>
<glyph name="T" format="1">
  <advance width="1047"/>
  <unicode hex="0054"/>
  <outline>
    <contour>
      <point x="573" y="0" type="line"/>
      <point x="573" y="1343" type="line"/>
      <point x="987" y="1343" type="line"/>
      <point x="987" y="1434" type="line"/>
      <point x="61" y="1434" type="line"/>
      <point x="61" y="1343" type="line"/>
      <point x="475" y="1343" type="line"/>
      <point x="475" y="0" type="line"/>
    </contour>
    <contour>
      <point x="524" y="717" type="move" name="center"/>
    </contour>
    <contour>
      <point x="524" y="0" type="move" name="bottom"/>
    </contour>
    <contour>
      <point x="524" y="1384" type="move" name="top"/>
    </contour>
  </outline>
</glyph>
<glyph name="U" format="1">
  <advance width="1327"/>
  <unicode hex="0055"/>
  <outline>
    <contour>
      <point x="1009" y="-24"/>
      <point x="1161" y="192"/>
      <point x="1161" y="580" type="curve" smooth="yes"/>
      <point x="1161" y="1434" type="line"/>
      <point x="1064" y="1434" type="line"/>
      <point x="1064" y="573" type="line" smooth="yes"/>
      <point x="1064" y="259"/>
      <point x="950" y="65"/>
      <point x="668" y="65" type="curve" smooth="yes"/>
      <point x="383" y="65"/>
      <point x="264" y="254"/>
      <point x="264" y="568" type="curve" smooth="yes"/>
      <point x="264" y="1434" type="line"/>
      <point x="166" y="1434" type="line"/>
      <point x="166" y="557" type="line" smooth="yes"/>
      <point x="166" y="188"/>
      <point x="320" y="-24"/>
      <point x="669" y="-24" type="curve" smooth="yes"/>
    </contour>
    <contour>
      <point x="749" y="10" type="move" name="ogonek"/>
    </contour>
    <contour>
      <point x="664" y="1384" type="move" name="top"/>
    </contour>
    <contour>
      <point x="1307" y="1434" type="move" name="topright"/>
    </contour>
    <contour>
      <point x="664" y="0" type="move" name="bottom"/>
    </contour>
  </outline>
</glyph>
<glyph name="V" format="1">
  <advance width="1237"/>
  <unicode hex="0056"/>
  <outline>
    <contour>
      <point x="639" y="0" type="line"/>
      <point x="1196" y="1434" type="line"/>
      <point x="1089" y="1435" type="line"/>
      <point x="641" y="264" type="line" smooth="yes"/>
      <point x="625" y="221"/>
      <point x="613" y="177"/>
      <point x="607" y="134" type="curve"/>
      <point x="603" y="134" type="line"/>
      <point x="598" y="176"/>
      <point x="587" y="225"/>
      <point x="573" y="261" type="curve"/>
      <point x="152" y="1434" type="line"/>
      <point x="42" y="1434" type="line"/>
      <point x="564" y="0" type="line"/>
    </contour>
    <contour>
      <point x="619" y="1384" type="move" name="top"/>
    </contour>
    <contour>
      <point x="619" y="0" type="move" name="bottom"/>
    </contour>
  </outline>
</glyph>
<glyph name="W" format="1">
  <advance width="1833"/>
  <unicode hex="0057"/>
  <outline>
    <contour>
      <point x="560" y="0" type="line"/>
      <point x="904" y="1100" type="line" smooth="yes"/>
      <point x="918" y="1144"/>
      <point x="926" y="1198"/>
      <point x="930" y="1244" type="curve"/>
      <point x="934" y="1244" type="line"/>
      <point x="936" y="1200"/>
      <point x="945" y="1138"/>
      <point x="957" y="1098" type="curve" smooth="yes"/>
      <point x="1279" y="0" type="line"/>
      <point x="1362" y="0" type="line"/>
      <point x="1782" y="1434" type="line"/>
      <point x="1678" y="1434" type="line"/>
      <point x="1351" y="263" type="line" smooth="yes"/>
      <point x="1339" y="220"/>
      <point x="1326" y="158"/>
      <point x="1324" y="125" type="curve"/>
      <point x="1320" y="125" type="line"/>
      <point x="1315" y="172"/>
      <point x="1308" y="218"/>
      <point x="1296" y="259" type="curve" smooth="yes"/>
      <point x="960" y="1434" type="line"/>
      <point x="910" y="1434" type="line"/>
      <point x="554" y="269" type="line" smooth="yes"/>
      <point x="541" y="226"/>
      <point x="526" y="159"/>
      <point x="522" y="125" type="curve"/>
      <point x="517" y="125" type="line"/>
      <point x="515" y="168"/>
      <point x="504" y="229"/>
      <point x="493" y="269" type="curve" smooth="yes"/>
      <point x="158" y="1434" type="line"/>
      <point x="51" y="1434" type="line"/>
      <point x="476" y="0" type="line"/>
    </contour>
    <contour>
      <point x="936" y="1384" type="move" name="top"/>
    </contour>
    <contour>
      <point x="917" y="0" type="move" name="bottom"/>
    </contour>
  </outline>
</glyph>
<glyph name="X" format="1">
  <advance width="1153"/>
  <unicode hex="0058"/>
  <outline>
    <contour>
      <point x="176" y="0" type="line"/>
      <point x="534" y="588" type="line"/>
      <point x="542" y="604"/>
      <point x="566" y="652"/>
      <point x="569" y="659" type="curve"/>
      <point x="573" y="659" type="line"/>
      <point x="581" y="638"/>
      <point x="599" y="601"/>
      <point x="607" y="587" type="curve" smooth="yes"/>
      <point x="959" y="0" type="line"/>
      <point x="1081" y="0" type="line"/>
      <point x="641" y="723" type="line"/>
      <point x="1072" y="1434" type="line"/>
      <point x="959" y="1434" type="line"/>
      <point x="638" y="887" type="line" smooth="yes"/>
      <point x="622" y="860"/>
      <point x="600" y="818"/>
      <point x="582" y="783" type="curve"/>
      <point x="578" y="783" type="line"/>
      <point x="567" y="809"/>
      <point x="543" y="860"/>
      <point x="528" y="885" type="curve" smooth="yes"/>
      <point x="200" y="1434" type="line"/>
      <point x="88" y="1434" type="line"/>
      <point x="517" y="723" type="line"/>
      <point x="59" y="0" type="line"/>
    </contour>
    <contour>
      <point x="577" y="1434" type="move" name="top"/>
    </contour>
    <contour>
      <point x="577" y="0" type="move" name="bottom"/>
    </contour>
  </outline>
</glyph>
<glyph name="Y" format="1">
  <advance width="1106"/>
  <unicode hex="0059"/>
  <outline>
    <contour>
      <point x="599" y="0" type="line"/>
      <point x="599" y="550" type="line"/>
      <point x="1061" y="1434" type="line"/>
      <point x="955" y="1434" type="line"/>
      <point x="593" y="718" type="line" smooth="yes"/>
      <point x="580" y="692"/>
      <point x="562" y="651"/>
      <point x="556" y="630" type="curve"/>
      <point x="553" y="630" type="line"/>
      <point x="543" y="657"/>
      <point x="522" y="710"/>
      <point x="518" y="718" type="curve" smooth="yes"/>
      <point x="173" y="1434" type="line"/>
      <point x="59" y="1434" type="line"/>
      <point x="500" y="546" type="line"/>
      <point x="500" y="0" type="line"/>
    </contour>
    <contour>
      <point x="553" y="1384" type="move" name="top"/>
    </contour>
    <contour>
      <point x="553" y="0" type="move" name="bottom"/>
    </contour>
  </outline>
</glyph>
<glyph name="Z" format="1">
  <advance width="1167"/>
  <unicode hex="005A"/>
  <outline>
    <contour>
      <point x="1077" y="0" type="line"/>
      <point x="1077" y="90" type="line"/>
      <point x="214" y="90" type="line"/>
      <point x="1087" y="1394" type="line"/>
      <point x="1087" y="1434" type="line"/>
      <point x="93" y="1434" type="line"/>
      <point x="93" y="1343" type="line"/>
      <point x="946" y="1343" type="line"/>
      <point x="66" y="47" type="line"/>
      <point x="66" y="0" type="line"/>
    </contour>
    <contour>
      <point x="584" y="1384" type="move" name="top"/>
    </contour>
    <contour>
      <point x="584" y="0" type="move" name="bottom"/>
    </contour>
  </outline>
</glyph>
<glyph name="bracketleft" format="1">
  <advance width="578"/>
  <unicode hex="005B"/>
  <outline>
    <contour>
      <point x="526" y="-326" type="line"/>
      <point x="526" y="-242" type="line"/>
      <point x="301" y="-242" type="line"/>
      <point x="301" y="1350" type="line"/>
      <point x="526" y="1350" type="line"/>
      <point x="526" y="1434" type="line"/>
      <point x="209" y="1434" type="line"/>
      <point x="209" y="-326" type="line"/>
    </contour>
  </outline>
</glyph>
<glyph name="backslash" format="1">
  <advance width="750"/>
  <unicode hex="005C"/>
  <outline>
    <contour>
      <point x="746" y="-210" type="line"/>
      <point x="57" y="1464" type="line"/>
      <point x="-26" y="1434" type="line"/>
      <point x="667" y="-240" type="line"/>
    </contour>
  </outline>
</glyph>
<glyph name="asciicircum" format="1">
  <advance width="1331"/>
  <unicode hex="005E"/>
  <outline>
    <contour>
      <point x="356" y="702" type="line"/>
      <point x="664" y="1315" type="line"/>
      <point x="668" y="1315" type="line"/>
      <point x="975" y="702" type="line"/>
      <point x="1071" y="702" type="line"/>
      <point x="686" y="1458" type="line"/>
      <point x="645" y="1458" type="line"/>
      <point x="260" y="702" type="line"/>
    </contour>
  </outline>
</glyph>
<glyph name="grave" format="1">
  <advance width="508"/>
  <unicode hex="0060"/>
  <outline>
    <contour>
      <point x="414" y="1188" type="line"/>
      <point x="200" y="1536" type="line"/>
      <point x="91" y="1536" type="line"/>
      <point x="319" y="1188" type="line"/>
    </contour>
  </outline>
</glyph>
<glyph name="c" format="1">
  <advance width="909"/>
  <unicode hex="0063"/>
  <outline>
    <contour>
      <point x="679" y="-23"/>
      <point x="790" y="7"/>
      <point x="878" y="60" type="curve"/>
      <point x="844" y="147" type="line"/>
      <point x="750" y="97"/>
      <point x="663" y="68"/>
      <point x="606" y="68" type="curve" smooth="yes"/>
      <point x="342" y="68"/>
      <point x="191" y="222"/>
      <point x="191" y="490" type="curve"/>
      <point x="191" y="753"/>
      <point x="336" y="906"/>
      <point x="588" y="910" type="curve" smooth="yes"/>
      <point x="667" y="912"/>
      <point x="748" y="893"/>
      <point x="812" y="857" type="curve"/>
      <point x="852" y="942" type="line"/>
      <point x="786" y="980"/>
      <point x="690" y="1000"/>
      <point x="587" y="998" type="curve"/>
      <point x="271" y="1000"/>
      <point x="90" y="813"/>
      <point x="90" y="485" type="curve" smooth="yes"/>
      <point x="90" y="162"/>
      <point x="266" y="-23"/>
      <point x="573" y="-23" type="curve" smooth="yes"/>
    </contour>
    <contour>
      <point x="455" y="974" type="move" name="top"/>
    </contour>
    <contour>
      <point x="495" y="0" type="move" name="bottom"/>
    </contour>
  </outline>
</glyph>
<glyph name="f" format="1">
  <advance width="565"/>
  <unicode hex="0066"/>
  <outline>
    <contour>
      <point x="316" y="2" type="line"/>
      <point x="316" y="1141" type="line"/>
      <point x="316" y="1340"/>
      <point x="352" y="1446"/>
      <point x="522" y="1446" type="curve" smooth="yes"/>
      <point x="546" y="1446"/>
      <point x="576" y="1439"/>
      <point x="613" y="1434" type="curve"/>
      <point x="629" y="1519" type="line"/>
      <point x="583" y="1526"/>
      <point x="544" y="1534"/>
      <point x="509" y="1534" type="curve" smooth="yes"/>
      <point x="278" y="1534"/>
      <point x="222" y="1353"/>
      <point x="222" y="1131" type="curve"/>
      <point x="222" y="2" type="line"/>
    </contour>
    <contour>
      <point x="35" y="901"/>
      <point x="581" y="901"/>
      <point x="581" y="901" type="curve"/>
      <point x="581" y="976" type="line"/>
      <point x="35" y="974" type="line"/>
      <point x="35" y="901" type="line"/>
    </contour>
    <contour>
      <point x="283" y="974" type="move" name="top"/>
    </contour>
    <contour>
      <point x="283" y="0" type="move" name="bottom"/>
    </contour>
  </outline>
</glyph>
<glyph name="g" format="1">
  <advance width="1147"/>
  <unicode hex="0067"/>
  <outline>
    <contour>
      <point x="746" y="-480"/>
      <point x="985" y="-340"/>
      <point x="985" y="0" type="curve" smooth="yes"/>
      <point x="986" y="974" type="line"/>
      <point x="932" y="974" type="line"/>
      <point x="892" y="804" type="line"/>
      <point x="892" y="804"/>
      <point x="891" y="55"/>
      <point x="891" y="15" type="curve"/>
      <point x="891" y="-252"/>
      <point x="751" y="-378"/>
      <point x="362" y="-398" type="curve"/>
      <point x="375" y="-482" type="line"/>
    </contour>
    <contour>
      <point x="786" y="-23"/>
      <point x="928" y="99"/>
      <point x="928" y="310" type="curve"/>
      <point x="891" y="413" type="line"/>
      <point x="891" y="201"/>
      <point x="765" y="64"/>
      <point x="577" y="64" type="curve" smooth="yes"/>
      <point x="328" y="64"/>
      <point x="186" y="213"/>
      <point x="186" y="473" type="curve" smooth="yes"/>
      <point x="186" y="751"/>
      <point x="338" y="911"/>
      <point x="604" y="911" type="curve" smooth="yes"/>
      <point x="708" y="911"/>
      <point x="817" y="855"/>
      <point x="905" y="757" type="curve"/>
      <point x="912" y="850" type="line"/>
      <point x="822" y="936"/>
      <point x="739" y="1000"/>
      <point x="591" y="1000" type="curve" smooth="yes"/>
      <point x="273" y="1000"/>
      <point x="90" y="804"/>
      <point x="90" y="462" type="curve" smooth="yes"/>
      <point x="90" y="154"/>
      <point x="253" y="-23"/>
      <point x="537" y="-23" type="curve"/>
    </contour>
    <contour>
      <point x="574" y="974" type="move" name="top"/>
    </contour>
    <contour>
      <point x="574" y="0" type="move" name="bottom"/>
    </contour>
  </outline>
</glyph>
<glyph name="h" format="1">
  <advance width="1096"/>
  <unicode hex="0068"/>
  <outline>
    <contour>
      <point x="952" y="0" type="line"/>
      <point x="952" y="610" type="line"/>
      <point x="952" y="833"/>
      <point x="843" y="1000"/>
      <point x="616" y="1000" type="curve"/>
      <point x="449" y="1000"/>
      <point x="325" y="938"/>
      <point x="239" y="814" type="curve"/>
      <point x="239" y="701" type="line"/>
      <point x="319" y="824"/>
      <point x="454" y="913"/>
      <point x="615" y="913" type="curve"/>
      <point x="801" y="913"/>
      <point x="858" y="746"/>
      <point x="858" y="564" type="curve"/>
      <point x="858" y="0" type="line"/>
    </contour>
    <contour>
      <point x="258" y="0" type="line"/>
      <point x="258" y="1517" type="line"/>
      <point x="164" y="1517" type="line"/>
      <point x="164" y="0" type="line"/>
    </contour>
    <contour>
      <point x="548" y="487" type="move" name="center"/>
    </contour>
    <contour>
      <point x="548" y="0" type="move" name="bottom"/>
    </contour>
    <contour>
      <point x="548" y="974" type="move" name="top"/>
    </contour>
  </outline>
</glyph>
<glyph name="i" format="1">
  <advance width="420"/>
  <unicode hex="0069"/>
  <outline>
    <contour>
      <point x="251" y="1290"/>
      <point x="281" y="1320"/>
      <point x="281" y="1361" type="curve" smooth="yes"/>
      <point x="281" y="1401"/>
      <point x="251" y="1431"/>
      <point x="211" y="1431" type="curve" smooth="yes"/>
      <point x="170" y="1431"/>
      <point x="140" y="1401"/>
      <point x="140" y="1361" type="curve" smooth="yes"/>
      <point x="140" y="1320"/>
      <point x="170" y="1290"/>
      <point x="211" y="1290" type="curve" smooth="yes"/>
    </contour>
    <component base="idotless"/>
  </outline>
</glyph>
<glyph name="k" format="1">
  <advance width="909"/>
  <unicode hex="006B"/>
  <outline>
    <contour>
      <point x="857" y="974" type="line"/>
      <point x="752" y="1000" type="line"/>
      <point x="255" y="430" type="line" smooth="yes"/>
      <point x="211" y="379"/>
      <point x="255" y="411"/>
      <point x="223" y="377" type="curve"/>
      <point x="223" y="356" type="line"/>
      <point x="242" y="292" type="line"/>
    </contour>
    <contour>
      <point x="258" y="0" type="line"/>
      <point x="258" y="1516" type="line"/>
      <point x="164" y="1516" type="line"/>
      <point x="164" y="0" type="line"/>
    </contour>
    <contour>
      <point x="900" y="-2" type="line"/>
      <point x="514" y="613" type="line"/>
      <point x="449" y="534" type="line"/>
      <point x="788" y="-2" type="line"/>
    </contour>
    <contour>
      <point x="455" y="974" type="move" name="top"/>
    </contour>
    <contour>
      <point x="455" y="0" type="move" name="bottom"/>
    </contour>
  </outline>
</glyph>
<glyph name="m" format="1">
  <advance width="1683"/>
  <unicode hex="006D"/>
  <outline>
    <contour>
      <point x="1540" y="0" type="line"/>
      <point x="1540" y="610" type="line"/>
      <point x="1539" y="833"/>
      <point x="1423" y="1000"/>
      <point x="1181" y="1000" type="curve"/>
      <point x="1065" y="1000"/>
      <point x="935" y="926"/>
      <point x="854" y="814" type="curve"/>
      <point x="884" y="721" type="line"/>
      <point x="944" y="837"/>
      <point x="1054" y="913"/>
      <point x="1160" y="913" type="curve"/>
      <point x="1377" y="913"/>
      <point x="1443" y="746"/>
      <point x="1446" y="564" type="curve"/>
      <point x="1446" y="0" type="line"/>
    </contour>
    <contour>
      <point x="258" y="0" type="line"/>
      <point x="260" y="839" type="line"/>
      <point x="227" y="974" type="line"/>
      <point x="166" y="974" type="line"/>
      <point x="164" y="0" type="line"/>
    </contour>
    <contour>
      <point x="902" y="0" type="line"/>
      <point x="902" y="610" type="line"/>
      <point x="901" y="833"/>
      <point x="792" y="1000"/>
      <point x="566" y="1000" type="curve"/>
      <point x="440" y="1000"/>
      <point x="304" y="926"/>
      <point x="239" y="814" type="curve"/>
      <point x="249" y="711" type="line"/>
      <point x="314" y="839"/>
      <point x="432" y="923"/>
      <point x="545" y="923" type="curve"/>
      <point x="745" y="923"/>
      <point x="805" y="792"/>
      <point x="808" y="564" type="curve"/>
      <point x="808" y="0" type="line"/>
    </contour>
    <contour>
      <point x="842" y="974" type="move" name="top"/>
    </contour>
    <contour>
      <point x="842" y="0" type="move" name="bottom"/>
    </contour>
  </outline>
</glyph>
<glyph name="r" format="1">
  <advance width="676"/>
  <unicode hex="0072"/>
  <outline>
    <contour>
      <point x="258" y="0" type="line"/>
      <point x="258" y="804" type="line"/>
      <point x="228" y="974" type="line"/>
      <point x="164" y="974" type="line"/>
      <point x="164" y="0" type="line"/>
    </contour>
    <contour>
      <point x="322" y="840"/>
      <point x="466" y="915"/>
      <point x="630" y="894" type="curve"/>
      <point x="647" y="990" type="line"/>
      <point x="469" y="1023"/>
      <point x="316" y="958"/>
      <point x="227" y="810" type="curve"/>
      <point x="237" y="687" type="line"/>
    </contour>
    <contour>
      <point x="338" y="974" type="move" name="top"/>
    </contour>
    <contour>
      <point x="201" y="0" type="move" name="bottom"/>
    </contour>
  </outline>
</glyph>
<glyph name="u" format="1">
  <advance width="1096"/>
  <unicode hex="0075"/>
  <outline>
    <contour>
      <point x="775" y="-22"/>
      <point x="865" y="142"/>
      <point x="865" y="213" type="curve"/>
      <point x="839" y="392" type="line"/>
      <point x="839" y="156"/>
      <point x="690" y="60"/>
      <point x="539" y="60" type="curve"/>
      <point x="289" y="60"/>
      <point x="237" y="189"/>
      <point x="237" y="343" type="curve"/>
      <point x="237" y="973" type="line"/>
      <point x="143" y="973" type="line"/>
      <point x="143" y="358" type="line"/>
      <point x="143" y="114"/>
      <point x="245" y="-22"/>
      <point x="513" y="-22" type="curve"/>
    </contour>
    <contour>
      <point x="1029" y="16" type="line"/>
      <point x="977" y="110"/>
      <point x="934" y="223"/>
      <point x="933" y="330" type="curve"/>
      <point x="839" y="328" type="line"/>
      <point x="839" y="198"/>
      <point x="881" y="75"/>
      <point x="945" y="-39" type="curve"/>
    </contour>
    <contour>
      <point x="933" y="974" type="line"/>
      <point x="839" y="974" type="line"/>
      <point x="839" y="328" type="line"/>
      <point x="933" y="211" type="line"/>
    </contour>
    <contour>
      <point x="986" y="10" type="move" name="ogonek"/>
    </contour>
    <contour>
      <point x="548" y="974" type="move" name="top"/>
    </contour>
    <contour>
      <point x="1076" y="974" type="move" name="topright"/>
    </contour>
    <contour>
      <point x="548" y="0" type="move" name="bottom"/>
    </contour>
  </outline>
</glyph>
<glyph name="v" format="1">
  <advance width="928"/>
  <unicode hex="0076"/>
  <outline>
    <contour>
      <point x="500" y="-5" type="line"/>
      <point x="907" y="974" type="line"/>
      <point x="807" y="974" type="line"/>
      <point x="496" y="211" type="line" smooth="yes"/>
      <point x="484" y="182"/>
      <point x="466" y="110"/>
      <point x="462" y="97" type="curve"/>
      <point x="458" y="97" type="line"/>
      <point x="456" y="108"/>
      <point x="439" y="178"/>
      <point x="424" y="215" type="curve" smooth="yes"/>
      <point x="123" y="974" type="line"/>
      <point x="20" y="974" type="line"/>
      <point x="416" y="-5" type="line"/>
    </contour>
    <contour>
      <point x="464" y="974" type="move" name="top"/>
    </contour>
    <contour>
      <point x="464" y="0" type="move" name="bottom"/>
    </contour>
  </outline>
</glyph>
<glyph name="w" format="1">
  <advance width="1386"/>
  <unicode hex="0077"/>
  <outline>
    <contour>
      <point x="432" y="-5" type="line"/>
      <point x="681" y="719" type="line" smooth="yes"/>
      <point x="687" y="738"/>
      <point x="702" y="802"/>
      <point x="703" y="814" type="curve"/>
      <point x="707" y="814" type="line"/>
      <point x="708" y="802"/>
      <point x="721" y="738"/>
      <point x="727" y="718" type="curve" smooth="yes"/>
      <point x="947" y="-5" type="line"/>
      <point x="1031" y="-5" type="line"/>
      <point x="1350" y="974" type="line"/>
      <point x="1255" y="974" type="line"/>
      <point x="1011" y="197" type="line" smooth="yes"/>
      <point x="1006" y="180"/>
      <point x="996" y="136"/>
      <point x="995" y="117" type="curve"/>
      <point x="987" y="117" type="line"/>
      <point x="986" y="136"/>
      <point x="977" y="187"/>
      <point x="973" y="199" type="curve" smooth="yes"/>
      <point x="741" y="974" type="line"/>
      <point x="678" y="974" type="line"/>
      <point x="418" y="202" type="line" smooth="yes"/>
      <point x="412" y="185"/>
      <point x="400" y="132"/>
      <point x="399" y="117" type="curve"/>
      <point x="391" y="117" type="line"/>
      <point x="390" y="136"/>
      <point x="382" y="186"/>
      <point x="379" y="197" type="curve" smooth="yes"/>
      <point x="139" y="974" type="line"/>
      <point x="37" y="974" type="line"/>
      <point x="347" y="-5" type="line"/>
    </contour>
    <contour>
      <point x="693" y="974" type="move" name="top"/>
    </contour>
    <contour>
      <point x="693" y="0" type="move" name="bottom"/>
    </contour>
  </outline>
</glyph>
<glyph name="x" format="1">
  <advance width="862"/>
  <unicode hex="0078"/>
  <outline>
    <contour>
      <point x="135" y="0" type="line"/>
      <point x="424" y="432" type="line"/>
      <point x="428" y="432" type="line"/>
      <point x="709" y="0" type="line"/>
      <point x="817" y="0" type="line"/>
      <point x="489" y="498" type="line"/>
      <point x="829" y="974" type="line"/>
      <point x="713" y="974" type="line"/>
      <point x="427" y="556" type="line"/>
      <point x="423" y="556" type="line"/>
      <point x="136" y="974" type="line"/>
      <point x="38" y="974" type="line"/>
      <point x="363" y="484" type="line"/>
      <point x="33" y="0" type="line"/>
    </contour>
    <contour>
      <point x="431" y="974" type="move" name="top"/>
    </contour>
    <contour>
      <point x="431" y="0" type="move" name="bottom"/>
    </contour>
  </outline>
</glyph>
<glyph name="y" format="1">
  <advance width="928"/>
  <unicode hex="0079"/>
  <outline>
    <contour>
      <point x="302" y="-441"/>
      <point x="398" y="-327"/>
      <point x="458" y="-138" type="curve" smooth="yes"/>
      <point x="913" y="974" type="line"/>
      <point x="813" y="974" type="line"/>
      <point x="485" y="205" type="line"/>
      <point x="465" y="129" type="line"/>
      <point x="459" y="129" type="line"/>
      <point x="439" y="207" type="line"/>
      <point x="123" y="974" type="line"/>
      <point x="20" y="974" type="line"/>
      <point x="415" y="15" type="line"/>
      <point x="338" y="-182" type="line" smooth="yes"/>
      <point x="285" y="-290"/>
      <point x="221" y="-358"/>
      <point x="142" y="-385" type="curve"/>
      <point x="169" y="-482" type="line"/>
    </contour>
    <contour>
      <point x="464" y="974" type="move" name="top"/>
    </contour>
    <contour>
      <point x="464" y="0" type="move" name="bottom"/>
    </contour>
  </outline>
</glyph>
<glyph name="z" format="1">
  <advance width="950"/>
  <unicode hex="007A"/>
  <outline>
    <contour>
      <point x="879" y="0" type="line"/>
      <point x="879" y="88" type="line"/>
      <point x="192" y="88" type="line"/>
      <point x="880" y="927" type="line"/>
      <point x="880" y="974" type="line"/>
      <point x="90" y="974" type="line"/>
      <point x="90" y="891" type="line"/>
      <point x="741" y="891" type="line"/>
      <point x="63" y="51" type="line"/>
      <point x="63" y="0" type="line"/>
    </contour>
    <contour>
      <point x="475" y="974" type="move" name="top"/>
    </contour>
    <contour>
      <point x="475" y="0" type="move" name="bottom"/>
    </contour>
  </outline>
</glyph>
<glyph name="braceleft" format="1">
  <advance width="578"/>
  <unicode hex="007B"/>
  <outline>
    <contour>
      <point x="506" y="-242" type="line"/>
      <point x="389" y="-235"/>
      <point x="346" y="-175"/>
      <point x="346" y="-6" type="curve" smooth="yes"/>
      <point x="346" y="270" type="line" smooth="yes"/>
      <point x="346" y="427"/>
      <point x="298" y="520"/>
      <point x="201" y="551" type="curve"/>
      <point x="201" y="555" type="line"/>
      <point x="298" y="584"/>
      <point x="346" y="673"/>
      <point x="346" y="821" type="curve" smooth="yes"/>
      <point x="346" y="1114" type="line" smooth="yes"/>
      <point x="346" y="1283"/>
      <point x="389" y="1343"/>
      <point x="506" y="1350" type="curve"/>
      <point x="506" y="1434" type="line"/>
      <point x="337" y="1427"/>
      <point x="250" y="1346"/>
      <point x="250" y="1143" type="curve" smooth="yes"/>
      <point x="250" y="829" type="line" smooth="yes"/>
      <point x="250" y="682"/>
      <point x="198" y="601"/>
      <point x="94" y="586" type="curve"/>
      <point x="94" y="522" type="line"/>
      <point x="198" y="507"/>
      <point x="250" y="420"/>
      <point x="250" y="262" type="curve" smooth="yes"/>
      <point x="250" y="-35" type="line" smooth="yes"/>
      <point x="250" y="-238"/>
      <point x="337" y="-319"/>
      <point x="506" y="-326" type="curve"/>
    </contour>
  </outline>
</glyph>
<glyph name="bar" format="1">
  <advance width="463"/>
  <unicode hex="007C"/>
  <outline>
    <contour>
      <point x="279" y="-481" type="line"/>
      <point x="279" y="1567" type="line"/>
      <point x="184" y="1567" type="line"/>
      <point x="184" y="-481" type="line"/>
    </contour>
  </outline>
</glyph>
<glyph name="cent" format="1">
  <advance width="1055"/>
  <unicode hex="00A2"/>
  <outline>
    <contour>
      <point x="662" y="-227" type="line"/>
      <point x="662" y="1215" type="line"/>
      <point x="575" y="1215" type="line"/>
      <point x="575" y="-227" type="line"/>
    </contour>
    <component base="c" xOffset="76"/>
  </outline>
</glyph>
<glyph name="sterling" format="1">
  <advance width="1055"/>
  <unicode hex="00A3"/>
  <outline>
    <contour>
      <point x="340" y="156"/>
      <point x="436" y="299"/>
      <point x="436" y="469" type="curve" smooth="yes"/>
      <point x="436" y="1011" type="line"/>
      <point x="436" y="1250"/>
      <point x="489" y="1376"/>
      <point x="742" y="1376" type="curve" smooth="yes"/>
      <point x="766" y="1376"/>
      <point x="796" y="1369"/>
      <point x="833" y="1364" type="curve"/>
      <point x="849" y="1439" type="line"/>
      <point x="803" y="1446"/>
      <point x="764" y="1454"/>
      <point x="729" y="1454" type="curve" smooth="yes"/>
      <point x="418" y="1454"/>
      <point x="342" y="1251"/>
      <point x="342" y="1001" type="curve"/>
      <point x="342" y="469" type="line" smooth="yes"/>
      <point x="342" y="324"/>
      <point x="255" y="197"/>
      <point x="80" y="86" type="curve"/>
      <point x="146" y="40" type="line"/>
    </contour>
    <contour>
      <point x="888" y="0" type="line"/>
      <point x="888" y="86" type="line"/>
      <point x="80" y="86" type="line"/>
      <point x="80" y="0" type="line"/>
    </contour>
    <contour>
      <point x="115" y="671"/>
      <point x="751" y="671"/>
      <point x="751" y="671" type="curve"/>
      <point x="751" y="746" type="line"/>
      <point x="115" y="744" type="line"/>
      <point x="115" y="671" type="line"/>
    </contour>
  </outline>
</glyph>
<glyph name="currency" format="1">
  <advance width="1139"/>
  <unicode hex="00A4"/>
  <outline>
    <contour>
      <point x="328" y="318" type="line"/>
      <point x="395" y="261"/>
      <point x="476" y="232"/>
      <point x="569" y="232" type="curve" smooth="yes"/>
      <point x="660" y="232"/>
      <point x="741" y="261"/>
      <point x="811" y="318" type="curve"/>
      <point x="946" y="183" type="line"/>
      <point x="1006" y="244" type="line"/>
      <point x="868" y="375" type="line"/>
      <point x="924" y="447"/>
      <point x="952" y="527"/>
      <point x="952" y="615" type="curve" smooth="yes"/>
      <point x="952" y="708"/>
      <point x="924" y="788"/>
      <point x="868" y="855" type="curve"/>
      <point x="1006" y="988" type="line"/>
      <point x="946" y="1049" type="line"/>
      <point x="809" y="914" type="line"/>
      <point x="740" y="970"/>
      <point x="660" y="998"/>
      <point x="569" y="998" type="curve" smooth="yes"/>
      <point x="484" y="998"/>
      <point x="403" y="970"/>
      <point x="328" y="914" type="curve"/>
      <point x="193" y="1049" type="line"/>
      <point x="133" y="988" type="line"/>
      <point x="270" y="855" type="line"/>
      <point x="214" y="788"/>
      <point x="186" y="708"/>
      <point x="186" y="615" type="curve" smooth="yes"/>
      <point x="186" y="532"/>
      <point x="214" y="452"/>
      <point x="270" y="375" type="curve"/>
      <point x="133" y="244" type="line"/>
      <point x="193" y="183" type="line"/>
    </contour>
    <contour>
      <point x="425" y="346"/>
      <point x="300" y="472"/>
      <point x="300" y="617" type="curve" smooth="yes"/>
      <point x="300" y="762"/>
      <point x="417" y="884"/>
      <point x="571" y="884" type="curve" smooth="yes"/>
      <point x="711" y="884"/>
      <point x="838" y="768"/>
      <point x="838" y="617" type="curve" smooth="yes"/>
      <point x="838" y="469"/>
      <point x="716" y="346"/>
      <point x="569" y="346" type="curve" smooth="yes"/>
    </contour>
  </outline>
</glyph>
<glyph name="yen" format="1">
  <advance width="1055"/>
  <unicode hex="00A5"/>
  <outline>
    <contour>
      <point x="574" y="0" type="line"/>
      <point x="574" y="570" type="line"/>
      <point x="991" y="1434" type="line"/>
      <point x="890" y="1434" type="line"/>
      <point x="573" y="738" type="line" smooth="yes"/>
      <point x="561" y="711"/>
      <point x="542" y="671"/>
      <point x="536" y="650" type="curve"/>
      <point x="533" y="650" type="line"/>
      <point x="523" y="677"/>
      <point x="502" y="730"/>
      <point x="498" y="738" type="curve" smooth="yes"/>
      <point x="178" y="1434" type="line"/>
      <point x="69" y="1434" type="line"/>
      <point x="485" y="566" type="line"/>
      <point x="485" y="0" type="line"/>
    </contour>
    <contour>
      <point x="946" y="333" type="line"/>
      <point x="946" y="417" type="line"/>
      <point x="110" y="417" type="line"/>
      <point x="110" y="333" type="line"/>
    </contour>
    <contour>
      <point x="946" y="565" type="line"/>
      <point x="946" y="649" type="line"/>
      <point x="110" y="649" type="line"/>
      <point x="110" y="565" type="line"/>
    </contour>
  </outline>
</glyph>
<glyph name="brokenbar" format="1">
  <advance width="463"/>
  <unicode hex="00A6"/>
  <outline>
    <contour>
      <point x="279" y="-481" type="line"/>
      <point x="279" y="371" type="line"/>
      <point x="184" y="371" type="line"/>
      <point x="184" y="-481" type="line"/>
    </contour>
    <contour>
      <point x="279" y="715" type="line"/>
      <point x="279" y="1567" type="line"/>
      <point x="184" y="1567" type="line"/>
      <point x="184" y="715" type="line"/>
    </contour>
  </outline>
</glyph>
<glyph name="section" format="1">
  <advance width="918"/>
  <unicode hex="00A7"/>
  <outline>
    <contour>
      <point x="615" y="-65"/>
      <point x="742" y="41"/>
      <point x="740" y="203" type="curve" smooth="yes"/>
      <point x="735" y="569"/>
      <point x="245" y="435"/>
      <point x="243" y="700" type="curve" smooth="yes"/>
      <point x="248" y="828"/>
      <point x="347" y="913"/>
      <point x="479" y="914" type="curve"/>
      <point x="459" y="983" type="line"/>
      <point x="285" y="983"/>
      <point x="158" y="861"/>
      <point x="158" y="700" type="curve" smooth="yes"/>
      <point x="158" y="361"/>
      <point x="655" y="483"/>
      <point x="655" y="203" type="curve" smooth="yes"/>
      <point x="655" y="72"/>
      <point x="563" y="15"/>
      <point x="426" y="12" type="curve"/>
      <point x="361" y="13"/>
      <point x="250" y="44"/>
      <point x="145" y="90" type="curve"/>
      <point x="117" y="5" type="line"/>
      <point x="212" y="-36"/>
      <point x="335" y="-64"/>
      <point x="426" y="-65" type="curve"/>
    </contour>
    <contour>
      <point x="578" y="415"/>
      <point x="755" y="525"/>
      <point x="755" y="693" type="curve" smooth="yes"/>
      <point x="755" y="1071"/>
      <point x="243" y="931"/>
      <point x="243" y="1202" type="curve" smooth="yes"/>
      <point x="243" y="1316"/>
      <point x="354" y="1385"/>
      <point x="509" y="1386" type="curve"/>
      <point x="555" y="1386"/>
      <point x="627" y="1375"/>
      <point x="690" y="1358" type="curve"/>
      <point x="709" y="1434" type="line"/>
      <point x="665" y="1451"/>
      <point x="585" y="1462"/>
      <point x="509" y="1462" type="curve"/>
      <point x="299" y="1462"/>
      <point x="157" y="1359"/>
      <point x="158" y="1202" type="curve" smooth="yes"/>
      <point x="160" y="853"/>
      <point x="670" y="974"/>
      <point x="670" y="693" type="curve" smooth="yes"/>
      <point x="670" y="569"/>
      <point x="540" y="486"/>
      <point x="346" y="482" type="curve"/>
      <point x="436" y="415" type="line"/>
    </contour>
  </outline>
</glyph>
<glyph name="dieresis" format="1">
  <advance width="817"/>
  <unicode hex="00A8"/>
  <outline>
    <contour>
      <point x="287" y="1181"/>
      <point x="322" y="1215"/>
      <point x="322" y="1260" type="curve" smooth="yes"/>
      <point x="322" y="1304"/>
      <point x="283" y="1336"/>
      <point x="240" y="1336" type="curve" smooth="yes"/>
      <point x="201" y="1336"/>
      <point x="163" y="1305"/>
      <point x="163" y="1260" type="curve" smooth="yes"/>
      <point x="163" y="1212"/>
      <point x="201" y="1181"/>
      <point x="242" y="1181" type="curve" smooth="yes"/>
    </contour>
    <contour>
      <point x="620" y="1181"/>
      <point x="656" y="1215"/>
      <point x="656" y="1260" type="curve" smooth="yes"/>
      <point x="656" y="1304"/>
      <point x="616" y="1336"/>
      <point x="573" y="1336" type="curve" smooth="yes"/>
      <point x="534" y="1336"/>
      <point x="497" y="1305"/>
      <point x="497" y="1260" type="curve" smooth="yes"/>
      <point x="497" y="1212"/>
      <point x="535" y="1181"/>
      <point x="575" y="1181" type="curve" smooth="yes"/>
    </contour>
  </outline>
</glyph>
<glyph name="copyright" format="1">
  <advance width="1804"/>
  <unicode hex="00A9"/>
  <outline>
    <contour>
      <point x="1315" y="-25"/>
      <point x="1649" y="306"/>
      <point x="1649" y="717" type="curve" smooth="yes"/>
      <point x="1649" y="1126"/>
      <point x="1312" y="1458"/>
      <point x="901" y="1458" type="curve" smooth="yes"/>
      <point x="493" y="1458"/>
      <point x="156" y="1128"/>
      <point x="156" y="715" type="curve" smooth="yes"/>
      <point x="156" y="306"/>
      <point x="488" y="-25"/>
      <point x="903" y="-25" type="curve" smooth="yes"/>
    </contour>
    <contour>
      <point x="534" y="51"/>
      <point x="236" y="351"/>
      <point x="236" y="715" type="curve" smooth="yes"/>
      <point x="236" y="1082"/>
      <point x="538" y="1382"/>
      <point x="901" y="1382" type="curve" smooth="yes"/>
      <point x="1268" y="1382"/>
      <point x="1569" y="1082"/>
      <point x="1569" y="715" type="curve" smooth="yes"/>
      <point x="1569" y="352"/>
      <point x="1270" y="51"/>
      <point x="901" y="51" type="curve" smooth="yes"/>
    </contour>
    <component base="c" xOffset="424" yOffset="274" xScale="0.909" yScale="0.909"/>
  </outline>
</glyph>
<glyph name="guillemetleft" format="1">
  <advance width="952"/>
  <unicode hex="00AB"/>
  <outline>
    <contour>
      <point x="841" y="151" type="line"/>
      <point x="560" y="487" type="line"/>
      <point x="843" y="831" type="line"/>
      <point x="720" y="831" type="line"/>
      <point x="442" y="487" type="line"/>
      <point x="720" y="151" type="line"/>
    </contour>
    <contour>
      <point x="522" y="151" type="line"/>
      <point x="241" y="487" type="line"/>
      <point x="524" y="831" type="line"/>
      <point x="401" y="831" type="line"/>
      <point x="123" y="487" type="line"/>
      <point x="401" y="151" type="line"/>
    </contour>
  </outline>
</glyph>
<glyph name="logicalnot" format="1">
  <advance width="1331"/>
  <unicode hex="00AC"/>
  <outline>
    <contour>
      <point x="1120" y="147" type="line"/>
      <point x="1120" y="639" type="line"/>
      <point x="213" y="639" type="line"/>
      <point x="213" y="555" type="line"/>
      <point x="1034" y="555" type="line"/>
      <point x="1034" y="147" type="line"/>
    </contour>
  </outline>
</glyph>
<glyph name="registered" format="1">
  <advance width="1804"/>
  <unicode hex="00AE"/>
  <outline>
    <contour>
      <point x="1315" y="-25"/>
      <point x="1649" y="306"/>
      <point x="1649" y="717" type="curve" smooth="yes"/>
      <point x="1649" y="1126"/>
      <point x="1312" y="1458"/>
      <point x="901" y="1458" type="curve" smooth="yes"/>
      <point x="493" y="1458"/>
      <point x="156" y="1128"/>
      <point x="156" y="715" type="curve" smooth="yes"/>
      <point x="156" y="306"/>
      <point x="488" y="-25"/>
      <point x="903" y="-25" type="curve" smooth="yes"/>
    </contour>
    <contour>
      <point x="534" y="51"/>
      <point x="236" y="351"/>
      <point x="236" y="715" type="curve" smooth="yes"/>
      <point x="236" y="1082"/>
      <point x="538" y="1382"/>
      <point x="901" y="1382" type="curve" smooth="yes"/>
      <point x="1268" y="1382"/>
      <point x="1569" y="1082"/>
      <point x="1569" y="715" type="curve" smooth="yes"/>
      <point x="1569" y="352"/>
      <point x="1270" y="51"/>
      <point x="901" y="51" type="curve" smooth="yes"/>
    </contour>
    <contour>
      <point x="1207" y="315" type="line"/>
      <point x="936" y="722" type="line"/>
      <point x="869" y="698" type="line"/>
      <point x="1119" y="315" type="line"/>
    </contour>
    <contour>
      <point x="775" y="315" type="line"/>
      <point x="775" y="679" type="line"/>
      <point x="903" y="679" type="line" smooth="yes"/>
      <point x="1055" y="679"/>
      <point x="1163" y="770"/>
      <point x="1163" y="920" type="curve" smooth="yes"/>
      <point x="1163" y="1067"/>
      <point x="1072" y="1145"/>
      <point x="925" y="1145" type="curve" smooth="yes"/>
      <point x="697" y="1145" type="line"/>
      <point x="697" y="315" type="line"/>
    </contour>
    <contour>
      <point x="774" y="1073" type="line"/>
      <point x="909" y="1073" type="line" smooth="yes"/>
      <point x="1020" y="1074"/>
      <point x="1084" y="1028"/>
      <point x="1084" y="916" type="curve" smooth="yes"/>
      <point x="1084" y="806"/>
      <point x="1011" y="753"/>
      <point x="896" y="753" type="curve" smooth="yes"/>
      <point x="774" y="753" type="line"/>
    </contour>
  </outline>
</glyph>
<glyph name="macron" format="1">
  <advance width="850"/>
  <unicode hex="00AF"/>
  <outline>
    <contour>
      <point x="810" y="1190" type="line"/>
      <point x="810" y="1280" type="line"/>
      <point x="40" y="1280" type="line"/>
      <point x="40" y="1190" type="line"/>
    </contour>
  </outline>
</glyph>
<glyph name="degree" format="1">
  <advance width="791"/>
  <unicode hex="00B0"/>
  <outline>
    <contour>
      <point x="539" y="930"/>
      <point x="647" y="1039"/>
      <point x="647" y="1184" type="curve" smooth="yes"/>
      <point x="647" y="1326"/>
      <point x="538" y="1434"/>
      <point x="393" y="1434" type="curve" smooth="yes"/>
      <point x="251" y="1434"/>
      <point x="143" y="1326"/>
      <point x="143" y="1184" type="curve" smooth="yes"/>
      <point x="143" y="1039"/>
      <point x="252" y="930"/>
      <point x="397" y="930" type="curve" smooth="yes"/>
    </contour>
    <contour>
      <point x="297" y="1006"/>
      <point x="225" y="1083"/>
      <point x="225" y="1184" type="curve" smooth="yes"/>
      <point x="225" y="1283"/>
      <point x="299" y="1358"/>
      <point x="397" y="1358" type="curve" smooth="yes"/>
      <point x="492" y="1358"/>
      <point x="563" y="1283"/>
      <point x="563" y="1184" type="curve" smooth="yes"/>
      <point x="563" y="1083"/>
      <point x="490" y="1006"/>
      <point x="393" y="1006" type="curve" smooth="yes"/>
    </contour>
  </outline>
</glyph>
<glyph name="plusminus" format="1">
  <advance width="1331"/>
  <unicode hex="00B1"/>
  <outline>
    <contour>
      <point x="1120" y="0" type="line"/>
      <point x="1120" y="84" type="line"/>
      <point x="213" y="84" type="line"/>
      <point x="213" y="0" type="line"/>
    </contour>
    <component base="plus" yOffset="75"/>
  </outline>
</glyph>
<glyph name="twosuperior" format="1">
  <advance width="674"/>
  <unicode hex="00B2"/>
  <outline>
    <contour>
      <point x="623" y="885" type="line"/>
      <point x="623" y="972" type="line"/>
      <point x="175" y="972" type="line"/>
      <point x="175" y="1216"/>
      <point x="598" y="1215"/>
      <point x="598" y="1524" type="curve" smooth="yes"/>
      <point x="598" y="1845"/>
      <point x="188" y="1732"/>
      <point x="107" y="1719" type="curve"/>
      <point x="130" y="1635" type="line"/>
      <point x="229" y="1654"/>
      <point x="510" y="1725"/>
      <point x="510" y="1509" type="curve" smooth="yes"/>
      <point x="510" y="1284"/>
      <point x="78" y="1277"/>
      <point x="78" y="946" type="curve"/>
      <point x="78" y="885" type="line"/>
    </contour>
  </outline>
</glyph>
<glyph name="threesuperior" format="1">
  <advance width="674"/>
  <unicode hex="00B3"/>
  <outline>
    <contour>
      <point x="460" y="863"/>
      <point x="565" y="960"/>
      <point x="565" y="1106" type="curve" smooth="yes"/>
      <point x="565" y="1211"/>
      <point x="497" y="1298"/>
      <point x="393" y="1327" type="curve"/>
      <point x="393" y="1331" type="line"/>
      <point x="479" y="1362"/>
      <point x="536" y="1450"/>
      <point x="536" y="1553" type="curve" smooth="yes"/>
      <point x="536" y="1674"/>
      <point x="457" y="1754"/>
      <point x="337" y="1754" type="curve" smooth="yes"/>
      <point x="251" y="1754"/>
      <point x="156" y="1739"/>
      <point x="98" y="1717" type="curve"/>
      <point x="118" y="1631" type="line"/>
      <point x="175" y="1651"/>
      <point x="257" y="1665"/>
      <point x="326" y="1665" type="curve" smooth="yes"/>
      <point x="401" y="1665"/>
      <point x="450" y="1610"/>
      <point x="450" y="1526" type="curve" smooth="yes"/>
      <point x="450" y="1424"/>
      <point x="353" y="1357"/>
      <point x="206" y="1357" type="curve"/>
      <point x="210" y="1274" type="line"/>
      <point x="370" y="1274"/>
      <point x="476" y="1209"/>
      <point x="476" y="1111" type="curve" smooth="yes"/>
      <point x="476" y="1010"/>
      <point x="411" y="944"/>
      <point x="312" y="944" type="curve" smooth="yes"/>
      <point x="236" y="944"/>
      <point x="148" y="955"/>
      <point x="91" y="972" type="curve"/>
      <point x="71" y="896" type="line"/>
      <point x="129" y="876"/>
      <point x="220" y="863"/>
      <point x="300" y="863" type="curve" smooth="yes"/>
    </contour>
  </outline>
</glyph>
<glyph name="acute" format="1">
  <advance width="508"/>
  <unicode hex="00B4"/>
  <outline>
    <contour>
      <point x="232" y="1188" type="line"/>
      <point x="480" y="1516" type="line"/>
      <point x="366" y="1516" type="line"/>
      <point x="132" y="1188" type="line"/>
    </contour>
  </outline>
</glyph>
<glyph name="micro" format="1">
  <advance width="1116"/>
  <unicode hex="00B5"/>
  <outline>
    <contour>
      <point x="164" y="-391" type="line"/>
      <point x="256" y="-391" type="line"/>
      <point x="256" y="737" type="line"/>
      <point x="164" y="737" type="line"/>
    </contour>
    <component base="u" xOffset="20"/>
  </outline>
</glyph>
<glyph name="paragraph" format="1">
  <advance width="971"/>
  <unicode hex="00B6"/>
  <outline>
    <contour>
      <point x="499" y="0" type="line"/>
      <point x="499" y="1348" type="line"/>
      <point x="657" y="1348" type="line"/>
      <point x="657" y="0" type="line"/>
      <point x="733" y="0" type="line"/>
      <point x="733" y="1348" type="line"/>
      <point x="864" y="1348" type="line"/>
      <point x="864" y="1434" type="line"/>
      <point x="369" y="1434" type="line" smooth="yes"/>
      <point x="229" y="1434"/>
      <point x="113" y="1328"/>
      <point x="113" y="1167" type="curve" smooth="yes"/>
      <point x="113" y="1018"/>
      <point x="248" y="903"/>
      <point x="422" y="903" type="curve"/>
      <point x="422" y="0" type="line"/>
    </contour>
  </outline>
</glyph>
<glyph name="cedilla" format="1">
  <advance width="412"/>
  <unicode hex="00B8"/>
  <outline>
    <contour>
      <point x="306" y="-434"/>
      <point x="391" y="-377"/>
      <point x="391" y="-264" type="curve" smooth="yes"/>
      <point x="391" y="-166"/>
      <point x="318" y="-117"/>
      <point x="171" y="-117" type="curve"/>
      <point x="171" y="60" type="line"/>
      <point x="94" y="60" type="line"/>
      <point x="94" y="-188" type="line"/>
      <point x="115" y="-185"/>
      <point x="137" y="-184"/>
      <point x="158" y="-184" type="curve" smooth="yes"/>
      <point x="255" y="-184"/>
      <point x="303" y="-213"/>
      <point x="303" y="-270" type="curve" smooth="yes"/>
      <point x="303" y="-331"/>
      <point x="250" y="-362"/>
      <point x="143" y="-362" type="curve" smooth="yes"/>
      <point x="119" y="-362"/>
      <point x="90" y="-360"/>
      <point x="57" y="-356" type="curve"/>
      <point x="57" y="-430" type="line"/>
      <point x="86" y="-433"/>
      <point x="113" y="-434"/>
      <point x="137" y="-434" type="curve" smooth="yes"/>
    </contour>
  </outline>
</glyph>
<glyph name="onesuperior" format="1">
  <advance width="674"/>
  <unicode hex="00B9"/>
  <outline>
    <contour>
      <point x="485" y="883" type="line"/>
      <point x="484" y="1746" type="line"/>
      <point x="459" y="1746" type="line"/>
      <point x="145" y="1630" type="line"/>
      <point x="171" y="1547" type="line"/>
      <point x="399" y="1623" type="line"/>
      <point x="399" y="883" type="line"/>
    </contour>
  </outline>
</glyph>
<glyph name="guillemetright" format="1">
  <advance width="952"/>
  <unicode hex="00BB"/>
  <outline>
    <contour>
      <point x="512" y="487" type="line"/>
      <point x="234" y="831" type="line"/>
      <point x="111" y="831" type="line"/>
      <point x="394" y="487" type="line"/>
      <point x="113" y="151" type="line"/>
      <point x="234" y="151" type="line"/>
    </contour>
    <contour>
      <point x="831" y="487" type="line"/>
      <point x="553" y="831" type="line"/>
      <point x="430" y="831" type="line"/>
      <point x="713" y="487" type="line"/>
      <point x="432" y="151" type="line"/>
      <point x="553" y="151" type="line"/>
    </contour>
  </outline>
</glyph>
<glyph name="AE" format="1">
  <advance width="1706"/>
  <unicode hex="00C6"/>
  <outline>
    <contour>
      <point x="126" y="0" type="line"/>
      <point x="847" y="1343" type="line"/>
      <point x="923" y="1343" type="line"/>
      <point x="939" y="1434" type="line"/>
      <point x="781" y="1434" type="line"/>
      <point x="16" y="0" type="line"/>
    </contour>
    <contour>
      <point x="910" y="341" type="line"/>
      <point x="910" y="433" type="line"/>
      <point x="278" y="433" type="line"/>
      <point x="278" y="341" type="line"/>
    </contour>
    <component base="E" xOffset="661"/>
  </outline>
</glyph>
<glyph name="multiply" format="1">
  <advance width="1331"/>
  <unicode hex="00D7"/>
  <outline>
    <contour>
      <point x="666" y="539" type="line"/>
      <point x="999" y="203" type="line"/>
      <point x="1059" y="262" type="line"/>
      <point x="725" y="596" type="line"/>
      <point x="1059" y="932" type="line"/>
      <point x="999" y="991" type="line"/>
      <point x="666" y="655" type="line"/>
      <point x="332" y="991" type="line"/>
      <point x="272" y="932" type="line"/>
      <point x="606" y="596" type="line"/>
      <point x="272" y="262" type="line"/>
      <point x="332" y="203" type="line"/>
    </contour>
  </outline>
</glyph>
<glyph name="Oslash" format="1">
  <advance width="1559"/>
  <unicode hex="00D8"/>
  <outline>
    <contour>
      <point x="1403" y="1440" type="line"/>
      <point x="1339" y="1493" type="line"/>
      <point x="84" y="-4" type="line"/>
      <point x="147" y="-55" type="line"/>
    </contour>
    <component base="O"/>
  </outline>
</glyph>
<glyph name="Thorn" format="1">
  <advance width="1114"/>
  <unicode hex="00DE"/>
  <outline>
    <contour>
      <point x="283" y="0" type="line"/>
      <point x="283" y="296" type="line"/>
      <point x="539" y="296" type="line" smooth="yes"/>
      <point x="798" y="296"/>
      <point x="985" y="459"/>
      <point x="985" y="726" type="curve" smooth="yes"/>
      <point x="985" y="1006"/>
      <point x="829" y="1154"/>
      <point x="578" y="1154" type="curve" smooth="yes"/>
      <point x="184" y="1154" type="line"/>
      <point x="184" y="0" type="line"/>
    </contour>
    <contour>
      <point x="282" y="1064" type="line"/>
      <point x="549" y="1065" type="line" smooth="yes"/>
      <point x="761" y="1066"/>
      <point x="885" y="964"/>
      <point x="885" y="718" type="curve" smooth="yes"/>
      <point x="885" y="494"/>
      <point x="745" y="386"/>
      <point x="527" y="386" type="curve" smooth="yes"/>
      <point x="282" y="386" type="line"/>
    </contour>
    <contour>
      <point x="282" y="958" type="line"/>
      <point x="282" y="1434" type="line"/>
      <point x="184" y="1434" type="line"/>
      <point x="184" y="958" type="line"/>
    </contour>
    <contour>
      <point x="557" y="1434" type="move" name="top"/>
    </contour>
    <contour>
      <point x="557" y="0" type="move" name="bottom"/>
    </contour>
  </outline>
</glyph>
<glyph name="germandbls" format="1">
  <advance width="1061"/>
  <unicode hex="00DF"/>
  <outline>
    <contour>
      <point x="541" y="1051"/>
      <point x="866" y="949"/>
      <point x="866" y="1268" type="curve" smooth="yes"/>
      <point x="866" y="1426"/>
      <point x="734" y="1532"/>
      <point x="535" y="1532" type="curve" smooth="yes"/>
      <point x="310" y="1532"/>
      <point x="164" y="1377"/>
      <point x="164" y="1116" type="curve" smooth="yes"/>
      <point x="164" y="2" type="line"/>
      <point x="256" y="2" type="line"/>
      <point x="256" y="1102" type="line" smooth="yes"/>
      <point x="256" y="1321"/>
      <point x="355" y="1448"/>
      <point x="526" y="1448" type="curve" smooth="yes"/>
      <point x="679" y="1448"/>
      <point x="770" y="1374"/>
      <point x="770" y="1254" type="curve" smooth="yes"/>
      <point x="770" y="1017"/>
      <point x="443" y="1092"/>
      <point x="443" y="802" type="curve" smooth="yes"/>
      <point x="443" y="442"/>
      <point x="876" y="576"/>
      <point x="880" y="273" type="curve" smooth="yes"/>
      <point x="879" y="142"/>
      <point x="803" y="65"/>
      <point x="671" y="62" type="curve" smooth="yes"/>
      <point x="586" y="63"/>
      <point x="511" y="84"/>
      <point x="390" y="139" type="curve"/>
      <point x="362" y="45" type="line"/>
      <point x="479" y="-5"/>
      <point x="562" y="-24"/>
      <point x="671" y="-25" type="curve" smooth="yes"/>
      <point x="864" y="-25"/>
      <point x="975" y="84"/>
      <point x="975" y="273" type="curve"/>
      <point x="973" y="666"/>
      <point x="540" y="526"/>
      <point x="538" y="802" type="curve"/>
    </contour>
  </outline>
</glyph>
<glyph name="ae" format="1">
  <advance width="1718"/>
  <unicode hex="00E6"/>
  <outline>
    <contour>
      <point x="675" y="-23"/>
      <point x="829" y="122"/>
      <point x="829" y="296" type="curve"/>
      <point x="788" y="399" type="line"/>
      <point x="788" y="198"/>
      <point x="630" y="66"/>
      <point x="471" y="66" type="curve"/>
      <point x="293" y="66"/>
      <point x="191" y="136"/>
      <point x="190" y="260" type="curve" smooth="yes"/>
      <point x="189" y="413"/>
      <point x="295" y="487"/>
      <point x="480" y="487" type="curve"/>
      <point x="603" y="487"/>
      <point x="714" y="439"/>
      <point x="785" y="368" type="curve"/>
      <point x="782" y="468" type="line"/>
      <point x="686" y="538"/>
      <point x="583" y="573"/>
      <point x="475" y="573" type="curve" smooth="yes"/>
      <point x="232" y="573"/>
      <point x="93" y="468"/>
      <point x="93" y="261" type="curve" smooth="yes"/>
      <point x="93" y="80"/>
      <point x="219" y="-23"/>
      <point x="440" y="-23" type="curve"/>
    </contour>
    <contour>
      <point x="861" y="445" type="line"/>
      <point x="860" y="618" type="line" smooth="yes"/>
      <point x="858" y="872"/>
      <point x="741" y="1000"/>
      <point x="519" y="1000" type="curve" smooth="yes"/>
      <point x="451" y="1000"/>
      <point x="354" y="990"/>
      <point x="211" y="974" type="curve"/>
      <point x="219" y="884" type="line"/>
      <point x="322" y="903"/>
      <point x="451" y="914"/>
      <point x="506" y="914" type="curve" smooth="yes"/>
      <point x="670" y="914"/>
      <point x="778" y="825"/>
      <point x="778" y="604" type="curve"/>
      <point x="778" y="445" type="line"/>
    </contour>
    <component base="e" xOffset="686"/>
    <contour>
      <point x="907" y="10" type="move" name="ogonek"/>
    </contour>
    <contour>
      <point x="842" y="0" type="move" name="bottom"/>
    </contour>
    <contour>
      <point x="842" y="974" type="move" name="top"/>
    </contour>
  </outline>
</glyph>
<glyph name="eth" format="1">
  <advance width="1090"/>
  <unicode hex="00F0"/>
  <outline>
    <contour>
      <point x="827" y="-25"/>
      <point x="999" y="197"/>
      <point x="999" y="510" type="curve" smooth="yes"/>
      <point x="999" y="783"/>
      <point x="885" y="1075"/>
      <point x="668" y="1300" type="curve"/>
      <point x="948" y="1436" type="line"/>
      <point x="913" y="1507" type="line"/>
      <point x="612" y="1358" type="line"/>
      <point x="542" y="1423"/>
      <point x="480" y="1474"/>
      <point x="426" y="1513" type="curve"/>
      <point x="350" y="1471" type="line"/>
      <point x="458" y="1378"/>
      <point x="511" y="1330"/>
      <point x="528" y="1311" type="curve"/>
      <point x="252" y="1178" type="line"/>
      <point x="287" y="1108" type="line"/>
      <point x="586" y="1257" type="line"/>
      <point x="664" y="1180"/>
      <point x="737" y="1081"/>
      <point x="805" y="961" type="curve"/>
      <point x="801" y="956" type="line"/>
      <point x="736" y="1018"/>
      <point x="655" y="1049"/>
      <point x="557" y="1049" type="curve" smooth="yes"/>
      <point x="277" y="1049"/>
      <point x="90" y="827"/>
      <point x="90" y="506" type="curve" smooth="yes"/>
      <point x="90" y="182"/>
      <point x="254" y="-25"/>
      <point x="547" y="-25" type="curve" smooth="yes"/>
    </contour>
    <contour>
      <point x="322" y="59"/>
      <point x="186" y="228"/>
      <point x="186" y="504" type="curve" smooth="yes"/>
      <point x="186" y="780"/>
      <point x="334" y="965"/>
      <point x="557" y="965" type="curve" smooth="yes"/>
      <point x="788" y="965"/>
      <point x="903" y="814"/>
      <point x="903" y="512" type="curve" smooth="yes"/>
      <point x="903" y="233"/>
      <point x="766" y="59"/>
      <point x="549" y="59" type="curve" smooth="yes"/>
    </contour>
  </outline>
</glyph>
<glyph name="divide" format="1">
  <advance width="1331"/>
  <unicode hex="00F7"/>
  <outline>
    <contour>
      <point x="1120" y="555" type="line"/>
      <point x="1120" y="639" type="line"/>
      <point x="213" y="639" type="line"/>
      <point x="213" y="555" type="line"/>
    </contour>
    <contour>
      <point x="711" y="174"/>
      <point x="743" y="209"/>
      <point x="743" y="252" type="curve" smooth="yes"/>
      <point x="743" y="295"/>
      <point x="711" y="328"/>
      <point x="668" y="328" type="curve" smooth="yes"/>
      <point x="625" y="328"/>
      <point x="590" y="295"/>
      <point x="590" y="252" type="curve" smooth="yes"/>
      <point x="590" y="209"/>
      <point x="625" y="174"/>
      <point x="668" y="174" type="curve" smooth="yes"/>
    </contour>
    <contour>
      <point x="711" y="866"/>
      <point x="743" y="901"/>
      <point x="743" y="944" type="curve" smooth="yes"/>
      <point x="743" y="987"/>
      <point x="711" y="1020"/>
      <point x="668" y="1020" type="curve" smooth="yes"/>
      <point x="625" y="1020"/>
      <point x="590" y="987"/>
      <point x="590" y="944" type="curve" smooth="yes"/>
      <point x="590" y="901"/>
      <point x="625" y="866"/>
      <point x="668" y="866" type="curve" smooth="yes"/>
    </contour>
  </outline>
</glyph>
<glyph name="oslash" format="1">
  <advance width="1149"/>
  <unicode hex="00F8"/>
  <outline>
    <contour>
      <point x="1094" y="950" type="line"/>
      <point x="1034" y="1004" type="line"/>
      <point x="71" y="0" type="line"/>
      <point x="132" y="-51" type="line"/>
    </contour>
    <component base="o"/>
  </outline>
</glyph>
<glyph name="thorn" format="1">
  <advance width="1147"/>
  <unicode hex="00FE"/>
  <outline>
    <contour>
      <point x="259" y="448" type="line"/>
      <point x="259" y="1434" type="line"/>
      <point x="166" y="1434" type="line"/>
      <point x="166" y="448" type="line"/>
    </contour>
    <component base="p"/>
  </outline>
</glyph>
<glyph name="Aogonek" format="1">
  <advance width="1288"/>
  <unicode hex="0104"/>
  <outline>
    <contour>
      <point x="1152" y="-399"/>
      <point x="1183" y="-396"/>
      <point x="1215" y="-391" type="curve"/>
      <point x="1205" y="-307" type="line"/>
      <point x="1176" y="-311"/>
      <point x="1154" y="-314"/>
      <point x="1145" y="-314" type="curve" smooth="yes"/>
      <point x="1062" y="-314"/>
      <point x="1015" y="-276"/>
      <point x="1015" y="-211" type="curve" smooth="yes"/>
      <point x="1015" y="-118"/>
      <point x="1107" y="-58"/>
      <point x="1229" y="0" type="curve"/>
      <point x="1107" y="0" type="line"/>
      <point x="1023" y="-30"/>
      <point x="925" y="-108"/>
      <point x="925" y="-226" type="curve" smooth="yes"/>
      <point x="925" y="-336"/>
      <point x="1000" y="-399"/>
      <point x="1131" y="-399" type="curve" smooth="yes"/>
    </contour>
    <component base="A"/>
    <contour>
      <point x="1159" y="10" type="move" name="_ogonek"/>
    </contour>
  </outline>
</glyph>
<glyph name="aogonek" format="1">
  <advance width="1012"/>
  <unicode hex="0105"/>
  <outline>
    <contour>
      <point x="888" y="-399"/>
      <point x="918" y="-396"/>
      <point x="944" y="-391" type="curve"/>
      <point x="938" y="-301" type="line"/>
      <point x="906" y="-305"/>
      <point x="884" y="-308"/>
      <point x="878" y="-308" type="curve" smooth="yes"/>
      <point x="825" y="-308"/>
      <point x="794" y="-276"/>
      <point x="794" y="-220" type="curve" smooth="yes"/>
      <point x="794" y="-156"/>
      <point x="856" y="-73"/>
      <point x="963" y="8" type="curve"/>
      <point x="875" y="8" type="line"/>
      <point x="762" y="-67"/>
      <point x="698" y="-159"/>
      <point x="698" y="-246" type="curve" smooth="yes"/>
      <point x="698" y="-343"/>
      <point x="758" y="-399"/>
      <point x="864" y="-399" type="curve" smooth="yes"/>
    </contour>
    <component base="a"/>
  </outline>
</glyph>
<glyph name="eogonek" format="1">
  <advance width="1034"/>
  <unicode hex="0119"/>
  <outline>
    <contour>
      <point x="856" y="-399"/>
      <point x="894" y="-389"/>
      <point x="928" y="-371" type="curve"/>
      <point x="898" y="-281" type="line"/>
      <point x="866" y="-298"/>
      <point x="844" y="-308"/>
      <point x="838" y="-308" type="curve" smooth="yes"/>
      <point x="785" y="-308"/>
      <point x="754" y="-272"/>
      <point x="754" y="-210" type="curve" smooth="yes"/>
      <point x="754" y="-138"/>
      <point x="819" y="-44"/>
      <point x="932" y="47" type="curve"/>
      <point x="844" y="47" type="line"/>
      <point x="726" y="-37"/>
      <point x="658" y="-140"/>
      <point x="658" y="-236" type="curve" smooth="yes"/>
      <point x="658" y="-340"/>
      <point x="718" y="-399"/>
      <point x="824" y="-399" type="curve" smooth="yes"/>
    </contour>
    <component base="e"/>
  </outline>
</glyph>
<glyph name="idotless" format="1">
  <advance width="420"/>
  <unicode hex="0131"/>
  <outline>
    <contour>
      <point x="257" y="0" type="line"/>
      <point x="257" y="974" type="line"/>
      <point x="163" y="974" type="line"/>
      <point x="163" y="0" type="line"/>
    </contour>
    <contour>
      <point x="214" y="10" type="move" name="ogonek"/>
    </contour>
    <contour>
      <point x="210" y="0" type="move" name="bottom"/>
    </contour>
    <contour>
      <point x="210" y="974" type="move" name="top"/>
    </contour>
  </outline>
</glyph>
<glyph name="Lslash" format="1">
  <advance width="938"/>
  <unicode hex="0141"/>
  <outline>
    <contour>
      <point x="649" y="852" type="line"/>
      <point x="649" y="948" type="line"/>
      <point x="70" y="596" type="line"/>
      <point x="70" y="500" type="line"/>
    </contour>
    <component base="L"/>
  </outline>
</glyph>
<glyph name="lslash" format="1">
  <advance width="502"/>
  <unicode hex="0142"/>
  <outline>
    <contour>
      <point x="479" y="836" type="line"/>
      <point x="479" y="932" type="line"/>
      <point x="25" y="590" type="line"/>
      <point x="25" y="494" type="line"/>
    </contour>
    <component base="l" xOffset="40"/>
  </outline>
</glyph>
<glyph name="eng" format="1">
  <advance width="1096"/>
  <unicode hex="014B"/>
  <outline>
    <contour>
      <point x="766" y="-468"/>
      <point x="952" y="-344"/>
      <point x="952" y="0" type="curve" smooth="yes"/>
      <point x="952" y="74" type="line"/>
      <point x="858" y="74" type="line"/>
      <point x="858" y="74"/>
      <point x="858" y="58"/>
      <point x="858" y="58" type="curve"/>
      <point x="859" y="-236"/>
      <point x="791" y="-360"/>
      <point x="509" y="-402" type="curve"/>
      <point x="520" y="-482" type="line"/>
    </contour>
    <component base="n"/>
  </outline>
</glyph>
<glyph name="OE" format="1">
  <advance width="1935"/>
  <unicode hex="0152"/>
  <outline>
    <contour>
      <point x="905" y="-25"/>
      <point x="1025" y="0"/>
      <point x="1125" y="0" type="curve"/>
      <point x="1125" y="117" type="line"/>
      <point x="1031" y="84"/>
      <point x="910" y="65"/>
      <point x="770" y="65" type="curve" smooth="yes"/>
      <point x="433" y="65"/>
      <point x="211" y="322"/>
      <point x="211" y="712" type="curve" smooth="yes"/>
      <point x="211" y="1107"/>
      <point x="441" y="1367"/>
      <point x="790" y="1367" type="curve" smooth="yes"/>
      <point x="922" y="1367"/>
      <point x="1036" y="1351"/>
      <point x="1125" y="1323" type="curve"/>
      <point x="1125" y="1434" type="line"/>
      <point x="1040" y="1434"/>
      <point x="917" y="1457"/>
      <point x="790" y="1457" type="curve" smooth="yes"/>
      <point x="380" y="1457"/>
      <point x="109" y="1161"/>
      <point x="109" y="712" type="curve" smooth="yes"/>
      <point x="109" y="268"/>
      <point x="372" y="-25"/>
      <point x="770" y="-25" type="curve" smooth="yes"/>
    </contour>
    <component base="E" xOffset="893"/>
  </outline>
</glyph>
<glyph name="uogonek" format="1">
  <advance width="1096"/>
  <unicode hex="0173"/>
  <outline>
    <contour>
      <point x="964" y="-399"/>
      <point x="998" y="-396"/>
      <point x="1028" y="-391" type="curve"/>
      <point x="1008" y="-301" type="line"/>
      <point x="975" y="-305"/>
      <point x="953" y="-308"/>
      <point x="948" y="-308" type="curve" smooth="yes"/>
      <point x="895" y="-308"/>
      <point x="864" y="-272"/>
      <point x="864" y="-210" type="curve" smooth="yes"/>
      <point x="864" y="-146"/>
      <point x="924" y="-64"/>
      <point x="1029" y="16" type="curve"/>
      <point x="941" y="16" type="line"/>
      <point x="831" y="-59"/>
      <point x="768" y="-151"/>
      <point x="768" y="-236" type="curve" smooth="yes"/>
      <point x="768" y="-340"/>
      <point x="828" y="-399"/>
      <point x="934" y="-399" type="curve" smooth="yes"/>
    </contour>
    <component base="u"/>
    <contour>
      <point x="986" y="10" type="move" name="_ogonek"/>
    </contour>
  </outline>
</glyph>
<glyph name="florin" format="1">
  <advance width="1055"/>
  <unicode hex="0192"/>
  <outline>
    <contour>
      <point x="349" y="-279"/>
      <point x="451" y="-162"/>
      <point x="492" y="133" type="curve" smooth="yes"/>
      <point x="590" y="838" type="line"/>
      <point x="774" y="838" type="line"/>
      <point x="774" y="920" type="line"/>
      <point x="602" y="920" type="line"/>
      <point x="635" y="1151" type="line" smooth="yes"/>
      <point x="654" y="1285"/>
      <point x="723" y="1352"/>
      <point x="842" y="1352" type="curve" smooth="yes"/>
      <point x="860" y="1352"/>
      <point x="876" y="1349"/>
      <point x="891" y="1342" type="curve"/>
      <point x="911" y="1423" type="line"/>
      <point x="886" y="1430"/>
      <point x="859" y="1434"/>
      <point x="829" y="1434" type="curve" smooth="yes"/>
      <point x="676" y="1434"/>
      <point x="568" y="1339"/>
      <point x="541" y="1151" type="curve" smooth="yes"/>
      <point x="508" y="920" type="line"/>
      <point x="391" y="920" type="line"/>
      <point x="391" y="838" type="line"/>
      <point x="496" y="838" type="line"/>
      <point x="399" y="127" type="line" smooth="yes"/>
      <point x="370" y="-89"/>
      <point x="297" y="-197"/>
      <point x="180" y="-197" type="curve" smooth="yes"/>
      <point x="168" y="-197"/>
      <point x="152" y="-195"/>
      <point x="133" y="-189" type="curve"/>
      <point x="103" y="-266" type="line"/>
      <point x="132" y="-275"/>
      <point x="158" y="-279"/>
      <point x="184" y="-279" type="curve" smooth="yes"/>
    </contour>
  </outline>
</glyph>
<glyph name="jdotless" format="1">
  <advance width="420"/>
  <unicode hex="0237"/>
  <outline>
    <contour>
      <point x="69" y="-467"/>
      <point x="255" y="-338"/>
      <point x="255" y="20" type="curve" smooth="yes"/>
      <point x="255" y="974" type="line"/>
      <point x="160" y="974" type="line"/>
      <point x="160" y="974"/>
      <point x="160" y="58"/>
      <point x="160" y="58" type="curve"/>
      <point x="161" y="-236"/>
      <point x="93" y="-360"/>
      <point x="-187" y="-402" type="curve"/>
      <point x="-176" y="-482" type="line"/>
    </contour>
    <contour>
      <point x="210" y="974" type="move" name="top"/>
    </contour>
    <contour>
      <point x="210" y="0" type="move" name="bottom"/>
    </contour>
  </outline>
</glyph>
<glyph name="circumflex" format="1">
  <advance width="766"/>
  <unicode hex="02C6"/>
  <outline>
    <contour>
      <point x="221" y="1188" type="line"/>
      <point x="371" y="1417" type="line"/>
      <point x="518" y="1188" type="line"/>
      <point x="614" y="1188" type="line"/>
      <point x="395" y="1524" type="line"/>
      <point x="350" y="1524" type="line"/>
      <point x="129" y="1188" type="line"/>
    </contour>
  </outline>
</glyph>
<glyph name="caron" format="1">
  <advance width="766"/>
  <unicode hex="02C7"/>
  <outline>
    <contour>
      <point x="412" y="1188" type="line"/>
      <point x="633" y="1524" type="line"/>
      <point x="551" y="1524" type="line"/>
      <point x="391" y="1284" type="line"/>
      <point x="233" y="1524" type="line"/>
      <point x="147" y="1524" type="line"/>
      <point x="367" y="1188" type="line"/>
    </contour>
  </outline>
</glyph>
<glyph name="breve" format="1">
  <advance width="610"/>
  <unicode hex="02D8"/>
  <outline>
    <contour>
      <point x="446" y="1178"/>
      <point x="552" y="1273"/>
      <point x="573" y="1423" type="curve"/>
      <point x="480" y="1423" type="line"/>
      <point x="468" y="1324"/>
      <point x="392" y="1259"/>
      <point x="303" y="1259" type="curve" smooth="yes"/>
      <point x="203" y="1259"/>
      <point x="134" y="1320"/>
      <point x="126" y="1423" type="curve"/>
      <point x="37" y="1423" type="line"/>
      <point x="49" y="1269"/>
      <point x="154" y="1178"/>
      <point x="301" y="1178" type="curve" smooth="yes"/>
    </contour>
  </outline>
</glyph>
<glyph name="dotaccent" format="1">
  <advance width="365"/>
  <unicode hex="02D9"/>
  <outline>
    <contour>
      <point x="234" y="1172"/>
      <point x="276" y="1214"/>
      <point x="276" y="1267" type="curve" smooth="yes"/>
      <point x="276" y="1321"/>
      <point x="229" y="1355"/>
      <point x="180" y="1355" type="curve" smooth="yes"/>
      <point x="132" y="1355"/>
      <point x="88" y="1321"/>
      <point x="88" y="1267" type="curve" smooth="yes"/>
      <point x="88" y="1212"/>
      <point x="132" y="1172"/>
      <point x="182" y="1172" type="curve" smooth="yes"/>
    </contour>
  </outline>
</glyph>
<glyph name="ring" format="1">
  <advance width="594"/>
  <unicode hex="02DA"/>
  <outline>
    <contour>
      <point x="412" y="1188"/>
      <point x="498" y="1267"/>
      <point x="498" y="1372" type="curve" smooth="yes"/>
      <point x="498" y="1477"/>
      <point x="412" y="1556"/>
      <point x="297" y="1556" type="curve" smooth="yes"/>
      <point x="182" y="1556"/>
      <point x="96" y="1477"/>
      <point x="96" y="1372" type="curve" smooth="yes"/>
      <point x="96" y="1267"/>
      <point x="182" y="1188"/>
      <point x="297" y="1188" type="curve" smooth="yes"/>
    </contour>
    <contour>
      <point x="230" y="1265"/>
      <point x="180" y="1311"/>
      <point x="180" y="1372" type="curve" smooth="yes"/>
      <point x="180" y="1433"/>
      <point x="230" y="1479"/>
      <point x="297" y="1479" type="curve" smooth="yes"/>
      <point x="365" y="1479"/>
      <point x="416" y="1433"/>
      <point x="416" y="1372" type="curve" smooth="yes"/>
      <point x="416" y="1311"/>
      <point x="365" y="1265"/>
      <point x="297" y="1265" type="curve" smooth="yes"/>
    </contour>
  </outline>
</glyph>
<glyph name="ogonek" format="1">
  <advance width="362"/>
  <unicode hex="02DB"/>
  <outline>
    <contour>
      <point x="305" y="-399"/>
      <point x="336" y="-396"/>
      <point x="368" y="-391" type="curve"/>
      <point x="358" y="-307" type="line"/>
      <point x="329" y="-311"/>
      <point x="307" y="-314"/>
      <point x="298" y="-314" type="curve" smooth="yes"/>
      <point x="215" y="-314"/>
      <point x="168" y="-276"/>
      <point x="168" y="-211" type="curve" smooth="yes"/>
      <point x="168" y="-143"/>
      <point x="218" y="-96"/>
      <point x="305" y="0" type="curve"/>
      <point x="210" y="0" type="line"/>
      <point x="126" y="-78"/>
      <point x="78" y="-130"/>
      <point x="78" y="-226" type="curve" smooth="yes"/>
      <point x="78" y="-336"/>
      <point x="153" y="-399"/>
      <point x="284" y="-399" type="curve" smooth="yes"/>
    </contour>
  </outline>
</glyph>
<glyph name="tilde" format="1">
  <advance width="649"/>
  <unicode hex="02DC"/>
  <outline>
    <contour>
      <point x="611" y="1160"/>
      <point x="664" y="1230"/>
      <point x="664" y="1393" type="curve"/>
      <point x="580" y="1393" type="line"/>
      <point x="580" y="1291"/>
      <point x="554" y="1248"/>
      <point x="494" y="1248" type="curve" smooth="yes"/>
      <point x="407" y="1248"/>
      <point x="352" y="1409"/>
      <point x="227" y="1409" type="curve" smooth="yes"/>
      <point x="97" y="1409"/>
      <point x="41" y="1333"/>
      <point x="41" y="1178" type="curve"/>
      <point x="123" y="1178" type="line"/>
      <point x="123" y="1278"/>
      <point x="152" y="1321"/>
      <point x="225" y="1321" type="curve" smooth="yes"/>
      <point x="318" y="1321"/>
      <point x="372" y="1160"/>
      <point x="485" y="1160" type="curve" smooth="yes"/>
    </contour>
  </outline>
</glyph>
<glyph name="hungarumlaut" format="1">
  <advance width="633"/>
  <unicode hex="02DD"/>
  <outline>
    <contour>
      <point x="365" y="1188" type="line"/>
      <point x="612" y="1505" type="line"/>
      <point x="502" y="1505" type="line"/>
      <point x="291" y="1188" type="line"/>
    </contour>
    <contour>
      <point x="143" y="1188" type="line"/>
      <point x="391" y="1505" type="line"/>
      <point x="281" y="1505" type="line"/>
      <point x="70" y="1188" type="line"/>
    </contour>
  </outline>
</glyph>
<glyph name="gravecomb" format="1">
  <advance width="549"/>
  <unicode hex="0300"/>
  <outline>
    <component base="grave"/>
    <contour>
      <point x="247" y="1516" type="move" name="top"/>
    </contour>
    <contour>
      <point x="369" y="974" type="move" name="_top"/>
    </contour>
  </outline>
</glyph>
<glyph name="acutecomb" format="1">
  <advance width="549"/>
  <unicode hex="0301"/>
  <outline>
    <component base="acute"/>
    <contour>
      <point x="188" y="1516" type="move" name="top"/>
    </contour>
    <contour>
      <point x="181" y="974" type="move" name="_top"/>
    </contour>
  </outline>
</glyph>
<glyph name="tildecomb" format="1">
  <advance width="649"/>
  <unicode hex="0303"/>
  <outline>
    <component base="tilde"/>
    <contour>
      <point x="355" y="1423" type="move" name="top"/>
    </contour>
    <contour>
      <point x="353" y="974" type="move" name="_top"/>
    </contour>
  </outline>
</glyph>
<glyph name="macroncomb" format="1">
  <advance width="850"/>
  <unicode hex="0304"/>
  <outline>
    <component base="macron"/>
    <contour>
      <point x="427" y="1731" type="move" name="top"/>
    </contour>
    <contour>
      <point x="415" y="974" type="move" name="_top"/>
    </contour>
  </outline>
</glyph>
<glyph name="brevecomb" format="1">
  <advance width="610"/>
  <unicode hex="0306"/>
  <outline>
    <component base="breve"/>
    <contour>
      <point x="307" y="1423" type="move" name="top"/>
    </contour>
    <contour>
      <point x="305" y="974" type="move" name="_top"/>
    </contour>
  </outline>
</glyph>
<glyph name="dotaccentcomb" format="1">
  <advance width="365"/>
  <unicode hex="0307"/>
  <outline>
    <component base="dotaccent"/>
    <contour>
      <point x="184" y="1339" type="move" name="top"/>
    </contour>
    <contour>
      <point x="182" y="974" type="move" name="_top"/>
    </contour>
  </outline>
</glyph>
<glyph name="dieresiscomb" format="1">
  <advance width="817"/>
  <unicode hex="0308"/>
  <outline>
    <component base="dieresis"/>
    <contour>
      <point x="412" y="1329" type="move" name="top"/>
    </contour>
    <contour>
      <point x="410" y="974" type="move" name="_top"/>
    </contour>
  </outline>
</glyph>
<glyph name="ringcomb" format="1">
  <advance width="594"/>
  <unicode hex="030A"/>
  <outline>
    <component base="ring" yOffset="-30"/>
    <contour>
      <point x="299" y="1556" type="move" name="top"/>
    </contour>
    <contour>
      <point x="297" y="974" type="move" name="_top"/>
    </contour>
  </outline>
</glyph>
<glyph name="hungarumlautcomb" format="1">
  <advance width="633"/>
  <unicode hex="030B"/>
  <outline>
    <component base="hungarumlaut"/>
    <contour>
      <point x="241" y="974" type="move" name="_top"/>
    </contour>
  </outline>
</glyph>
<glyph name="caroncomb" format="1">
  <advance width="766"/>
  <unicode hex="030C"/>
  <outline>
    <component base="caron"/>
    <contour>
      <point x="392" y="1524" type="move" name="top"/>
    </contour>
    <contour>
      <point x="390" y="974" type="move" name="_top"/>
    </contour>
  </outline>
</glyph>
<glyph name="commaturnedabovecomb" format="1">
  <advance width="455"/>
  <unicode hex="0312"/>
  <outline>
    <contour>
      <point x="219" y="1494"/>
      <point x="182" y="1315"/>
      <point x="164" y="1183" type="curve"/>
      <point x="263" y="1183" type="line"/>
      <point x="277" y="1302"/>
      <point x="290" y="1392"/>
      <point x="381" y="1585" type="curve"/>
      <point x="311" y="1635" type="line"/>
    </contour>
    <contour>
      <point x="285" y="1675" type="move" name="top"/>
    </contour>
    <contour>
      <point x="216" y="974" type="move" name="_top"/>
    </contour>
  </outline>
</glyph>
<glyph name="commaaccentcomb" format="1">
  <advance width="455"/>
  <unicode hex="0326"/>
  <outline>
    <component base="comma" yOffset="-330"/>
    <contour>
      <point x="237" y="0" type="move" name="_bottom"/>
    </contour>
    <contour>
      <point x="180" y="-594" type="move" name="bottom"/>
    </contour>
  </outline>
</glyph>
<glyph name="cedillacomb" format="1">
  <advance width="412"/>
  <unicode hex="0327"/>
  <outline>
    <component base="cedilla" xOffset="71"/>
    <contour>
      <point x="204" y="0" type="move" name="_bottom"/>
    </contour>
    <contour>
      <point x="226" y="-434" type="move" name="bottom"/>
    </contour>
  </outline>
</glyph>
<glyph name="strokeshortoverlaycomb" format="1">
  <advance width="0"/>
  <unicode hex="0335"/>
  <outline>
    <contour>
      <point x="666" y="632" type="line"/>
      <point x="666" y="715" type="line"/>
      <point x="119" y="715" type="line"/>
      <point x="119" y="632" type="line"/>
    </contour>
  </outline>
</glyph>
<glyph name="strokelongoverlaycomb" format="1">
  <advance width="0"/>
  <unicode hex="0336"/>
  <outline>
    <contour>
      <point x="1325" y="1015" type="line"/>
      <point x="1325" y="1106" type="line"/>
      <point x="61" y="1106" type="line"/>
      <point x="61" y="1015" type="line"/>
    </contour>
  </outline>
</glyph>
<glyph name="quoteleft" format="1">
  <advance width="438"/>
  <unicode hex="2018"/>
  <outline>
    <contour>
      <point x="185" y="1313"/>
      <point x="143" y="1118"/>
      <point x="123" y="974" type="curve"/>
      <point x="222" y="974" type="line"/>
      <point x="238" y="1105"/>
      <point x="253" y="1204"/>
      <point x="360" y="1416" type="curve"/>
      <point x="290" y="1466" type="line"/>
    </contour>
  </outline>
</glyph>
<glyph name="quotedblleft" format="1">
  <advance width="686"/>
  <unicode hex="201C"/>
  <outline>
    <contour>
      <point x="432" y="1313"/>
      <point x="390" y="1118"/>
      <point x="370" y="974" type="curve"/>
      <point x="469" y="974" type="line"/>
      <point x="485" y="1105"/>
      <point x="500" y="1204"/>
      <point x="607" y="1416" type="curve"/>
      <point x="537" y="1466" type="line"/>
    </contour>
    <contour>
      <point x="185" y="1313"/>
      <point x="143" y="1118"/>
      <point x="123" y="974" type="curve"/>
      <point x="222" y="974" type="line"/>
      <point x="238" y="1105"/>
      <point x="253" y="1204"/>
      <point x="360" y="1416" type="curve"/>
      <point x="290" y="1466" type="line"/>
    </contour>
  </outline>
</glyph>
<glyph name="quotedblright" format="1">
  <advance width="686"/>
  <unicode hex="201D"/>
  <outline>
    <contour>
      <point x="276" y="1094"/>
      <point x="318" y="1289"/>
      <point x="338" y="1433" type="curve"/>
      <point x="239" y="1433" type="line"/>
      <point x="223" y="1302"/>
      <point x="208" y="1203"/>
      <point x="101" y="991" type="curve"/>
      <point x="171" y="941" type="line"/>
    </contour>
    <contour>
      <point x="523" y="1094"/>
      <point x="565" y="1289"/>
      <point x="585" y="1433" type="curve"/>
      <point x="486" y="1433" type="line"/>
      <point x="470" y="1302"/>
      <point x="455" y="1203"/>
      <point x="348" y="991" type="curve"/>
      <point x="418" y="941" type="line"/>
    </contour>
  </outline>
</glyph>
<glyph name="dagger" format="1">
  <advance width="756"/>
  <unicode hex="2020"/>
  <outline>
    <contour>
      <point x="708" y="968" type="line"/>
      <point x="445" y="984" type="line"/>
      <point x="416" y="282" type="line"/>
      <point x="357" y="282" type="line"/>
      <point x="326" y="984" type="line"/>
      <point x="68" y="968" type="line"/>
      <point x="68" y="1074" type="line"/>
      <point x="346" y="1054" type="line"/>
      <point x="316" y="1434" type="line"/>
      <point x="455" y="1434" type="line"/>
      <point x="425" y="1054" type="line"/>
      <point x="708" y="1074" type="line"/>
    </contour>
  </outline>
</glyph>
<glyph name="daggerdbl" format="1">
  <advance width="756"/>
  <unicode hex="2021"/>
  <outline>
    <contour>
      <point x="708" y="1038" type="line"/>
      <point x="425" y="1054" type="line"/>
      <point x="408" y="607" type="line"/>
      <point x="368" y="607" type="line"/>
      <point x="346" y="1054" type="line"/>
      <point x="68" y="1038" type="line"/>
      <point x="68" y="1144" type="line"/>
      <point x="346" y="1124" type="line"/>
      <point x="316" y="1434" type="line"/>
      <point x="455" y="1434" type="line"/>
      <point x="425" y="1124" type="line"/>
      <point x="708" y="1144" type="line"/>
    </contour>
    <contour>
      <point x="425" y="439" type="line"/>
      <point x="455" y="129" type="line"/>
      <point x="316" y="129" type="line"/>
      <point x="346" y="439" type="line"/>
      <point x="68" y="419" type="line"/>
      <point x="68" y="525" type="line"/>
      <point x="346" y="509" type="line"/>
      <point x="368" y="956" type="line"/>
      <point x="408" y="956" type="line"/>
      <point x="425" y="509" type="line"/>
      <point x="708" y="525" type="line"/>
      <point x="708" y="419" type="line"/>
    </contour>
  </outline>
</glyph>
<glyph name="bullet" format="1">
  <advance width="811"/>
  <unicode hex="2022"/>
  <outline>
    <contour>
      <point x="280" y="307"/>
      <point x="184" y="400"/>
      <point x="184" y="523" type="curve" smooth="yes"/>
      <point x="184" y="649"/>
      <point x="280" y="744"/>
      <point x="408" y="744" type="curve" smooth="yes"/>
      <point x="533" y="744"/>
      <point x="627" y="649"/>
      <point x="627" y="523" type="curve" smooth="yes"/>
      <point x="627" y="400"/>
      <point x="533" y="307"/>
      <point x="408" y="307" type="curve" smooth="yes"/>
    </contour>
  </outline>
</glyph>
<glyph name="guilsinglleft" format="1">
  <advance width="635"/>
  <unicode hex="2039"/>
  <outline>
    <contour>
      <point x="522" y="151" type="line"/>
      <point x="241" y="487" type="line"/>
      <point x="524" y="831" type="line"/>
      <point x="401" y="831" type="line"/>
      <point x="123" y="487" type="line"/>
      <point x="401" y="151" type="line"/>
    </contour>
  </outline>
</glyph>
<glyph name="euro" format="1">
  <advance width="1055"/>
  <unicode hex="20AC"/>
  <outline>
    <contour>
      <point x="810" y="-20"/>
      <point x="925" y="20"/>
      <point x="1000" y="65" type="curve"/>
      <point x="968" y="149" type="line"/>
      <point x="879" y="97"/>
      <point x="793" y="67"/>
      <point x="732" y="67" type="curve" smooth="yes"/>
      <point x="456" y="67"/>
      <point x="299" y="311"/>
      <point x="299" y="721" type="curve" smooth="yes"/>
      <point x="299" y="1132"/>
      <point x="454" y="1367"/>
      <point x="723" y="1367" type="curve" smooth="yes"/>
      <point x="811" y="1367"/>
      <point x="884" y="1352"/>
      <point x="943" y="1321" type="curve"/>
      <point x="969" y="1416" type="line"/>
      <point x="902" y="1439"/>
      <point x="821" y="1460"/>
      <point x="725" y="1460" type="curve" smooth="yes"/>
      <point x="397" y="1460"/>
      <point x="209" y="1188"/>
      <point x="209" y="713" type="curve" smooth="yes"/>
      <point x="209" y="247"/>
      <point x="391" y="-20"/>
      <point x="709" y="-20" type="curve" smooth="yes"/>
    </contour>
    <contour>
      <point x="864" y="499" type="line"/>
      <point x="864" y="583" type="line"/>
      <point x="78" y="583" type="line"/>
      <point x="78" y="499" type="line"/>
    </contour>
    <contour>
      <point x="864" y="821" type="line"/>
      <point x="864" y="905" type="line"/>
      <point x="78" y="905" type="line"/>
      <point x="78" y="821" type="line"/>
    </contour>
  </outline>
</glyph>
<glyph name="trademark" format="1">
  <advance width="1585"/>
  <unicode hex="2122"/>
  <outline>
    <contour>
      <point x="774" y="772" type="line"/>
      <point x="774" y="1305" type="line"/>
      <point x="778" y="1305" type="line"/>
      <point x="995" y="772" type="line"/>
      <point x="1063" y="772" type="line"/>
      <point x="1290" y="1305" type="line"/>
      <point x="1294" y="1305" type="line"/>
      <point x="1294" y="772" type="line"/>
      <point x="1376" y="772" type="line"/>
      <point x="1376" y="1434" type="line"/>
      <point x="1268" y="1434" type="line"/>
      <point x="1034" y="889" type="line"/>
      <point x="1030" y="889" type="line"/>
      <point x="807" y="1434" type="line"/>
      <point x="692" y="1434" type="line"/>
      <point x="692" y="772" type="line"/>
    </contour>
    <contour>
      <point x="373" y="772" type="line"/>
      <point x="373" y="1356" type="line"/>
      <point x="596" y="1356" type="line"/>
      <point x="596" y="1434" type="line"/>
      <point x="70" y="1434" type="line"/>
      <point x="70" y="1356" type="line"/>
      <point x="291" y="1356" type="line"/>
      <point x="291" y="772" type="line"/>
    </contour>
  </outline>
</glyph>
<glyph name="acutecomb.case" format="1">
  <advance width="600"/>
  <outline>
    <contour>
      <point x="242" y="1188" type="line"/>
      <point x="490" y="1416" type="line"/>
      <point x="366" y="1416" type="line"/>
      <point x="132" y="1188" type="line"/>
    </contour>
    <contour>
      <point x="188" y="1516" type="move" name="top"/>
    </contour>
    <contour>
      <point x="181" y="974" type="move" name="_top"/>
    </contour>
  </outline>
</glyph>
<glyph name="brevecomb.case" format="1">
  <advance width="600"/>
  <outline>
    <contour>
      <point x="463" y="1178"/>
      <point x="569" y="1249"/>
      <point x="593" y="1373" type="curve"/>
      <point x="490" y="1373" type="line"/>
      <point x="476" y="1301"/>
      <point x="408" y="1259"/>
      <point x="303" y="1259" type="curve" smooth="yes"/>
      <point x="192" y="1259"/>
      <point x="124" y="1301"/>
      <point x="116" y="1373" type="curve"/>
      <point x="17" y="1373" type="line"/>
      <point x="30" y="1249"/>
      <point x="134" y="1178"/>
      <point x="301" y="1178" type="curve" smooth="yes"/>
    </contour>
    <contour>
      <point x="307" y="1423" type="move" name="top"/>
    </contour>
    <contour>
      <point x="305" y="974" type="move" name="_top"/>
    </contour>
  </outline>
</glyph>
<glyph name="caron.alt" format="1">
  <advance width="441"/>
  <outline>
    <contour>
      <point x="252" y="1094"/>
      <point x="284" y="1289"/>
      <point x="299" y="1433" type="curve"/>
      <point x="200" y="1433" type="line"/>
      <point x="189" y="1302"/>
      <point x="178" y="1203"/>
      <point x="102" y="991" type="curve"/>
      <point x="172" y="941" type="line"/>
    </contour>
  </outline>
</glyph>
<glyph name="caroncomb.alt" format="1">
  <advance width="249"/>
  <outline>
    <contour>
      <point x="79" y="1224" type="line"/>
      <point x="208" y="1516" type="line"/>
      <point x="79" y="1516" type="line"/>
      <point x="31" y="1224" type="line"/>
    </contour>
    <contour>
      <point x="125" y="974" type="move" name="_topright"/>
    </contour>
  </outline>
</glyph>
<glyph name="caroncomb.case" format="1">
  <advance width="600"/>
  <outline>
    <contour>
      <point x="412" y="1187" type="line"/>
      <point x="683" y="1422" type="line"/>
      <point x="551" y="1422" type="line"/>
      <point x="391" y="1284" type="line"/>
      <point x="233" y="1422" type="line"/>
      <point x="87" y="1422" type="line"/>
      <point x="367" y="1187" type="line"/>
    </contour>
    <contour>
      <point x="392" y="1524" type="move" name="top"/>
    </contour>
    <contour>
      <point x="390" y="974" type="move" name="_top"/>
    </contour>
  </outline>
</glyph>
<glyph name="cedillacomb.case" format="1">
  <advance width="600"/>
  <outline>
    <contour>
      <point x="384" y="-434"/>
      <point x="472" y="-370"/>
      <point x="472" y="-244" type="curve" smooth="yes"/>
      <point x="472" y="-133"/>
      <point x="389" y="-77"/>
      <point x="233" y="-77" type="curve"/>
      <point x="233" y="60" type="line"/>
      <point x="175" y="60" type="line"/>
      <point x="175" y="-158" type="line"/>
      <point x="190" y="-155"/>
      <point x="214" y="-154"/>
      <point x="229" y="-154" type="curve" smooth="yes"/>
      <point x="326" y="-154"/>
      <point x="374" y="-186"/>
      <point x="374" y="-250" type="curve" smooth="yes"/>
      <point x="374" y="-318"/>
      <point x="321" y="-352"/>
      <point x="214" y="-352" type="curve" smooth="yes"/>
      <point x="190" y="-352"/>
      <point x="161" y="-350"/>
      <point x="128" y="-346" type="curve"/>
      <point x="128" y="-430" type="line"/>
      <point x="157" y="-433"/>
      <point x="184" y="-434"/>
      <point x="208" y="-434" type="curve" smooth="yes"/>
    </contour>
    <contour>
      <point x="204" y="0" type="move" name="_bottom"/>
    </contour>
    <contour>
      <point x="226" y="-434" type="move" name="bottom"/>
    </contour>
  </outline>
</glyph>
<glyph name="circumflexcomb.case" format="1">
  <advance width="600"/>
  <outline>
    <contour>
      <point x="213" y="1187" type="line"/>
      <point x="383" y="1316" type="line"/>
      <point x="550" y="1187" type="line"/>
      <point x="676" y="1187" type="line"/>
      <point x="407" y="1394" type="line"/>
      <point x="362" y="1394" type="line"/>
      <point x="91" y="1187" type="line"/>
    </contour>
    <contour>
      <point x="374" y="1524" type="move" name="top"/>
    </contour>
    <contour>
      <point x="372" y="974" type="move" name="_top"/>
    </contour>
  </outline>
</glyph>
<glyph name="commaaccentcomb.case" format="1">
  <advance width="600"/>
  <outline>
    <contour>
      <point x="264" y="-331"/>
      <point x="286" y="-199"/>
      <point x="296" y="-102" type="curve"/>
      <point x="197" y="-102" type="line"/>
      <point x="190" y="-186"/>
      <point x="184" y="-249"/>
      <point x="139" y="-384" type="curve"/>
      <point x="209" y="-434" type="line"/>
    </contour>
    <contour>
      <point x="237" y="0" type="move" name="_bottom"/>
    </contour>
    <contour>
      <point x="180" y="-594" type="move" name="bottom"/>
    </contour>
  </outline>
</glyph>
<glyph name="four.sup" format="1">
  <advance width="1513"/>
  <outline>
    <contour>
      <point x="1349" y="-1" type="line"/>
      <point x="1349" y="176" type="line"/>
      <point x="1468" y="176" type="line"/>
      <point x="1468" y="256" type="line"/>
      <point x="1349" y="256" type="line"/>
      <point x="1349" y="853" type="line"/>
      <point x="1239" y="854" type="line"/>
      <point x="872" y="268" type="line"/>
      <point x="872" y="176" type="line"/>
      <point x="1267" y="176" type="line"/>
      <point x="1267" y="-1" type="line"/>
    </contour>
    <contour>
      <point x="1267" y="754" type="line"/>
      <point x="1267" y="256" type="line"/>
      <point x="961" y="256" type="line"/>
    </contour>
  </outline>
</glyph>
<glyph name="fractslash" format="1">
  <advance width="0"/>
  <outline>
    <contour>
      <point x="472" y="1423" type="line"/>
      <point x="396" y="1463" type="line"/>
      <point x="-472" y="0" type="line"/>
      <point x="-394" y="-40" type="line"/>
    </contour>
  </outline>
</glyph>
<glyph name="gravecomb.case" format="1">
  <advance width="600"/>
  <outline>
    <contour>
      <point x="414" y="1188" type="line"/>
      <point x="200" y="1410" type="line"/>
      <point x="91" y="1410" type="line"/>
      <point x="319" y="1188" type="line"/>
    </contour>
    <contour>
      <point x="247" y="1516" type="move" name="top"/>
    </contour>
    <contour>
      <point x="369" y="974" type="move" name="_top"/>
    </contour>
  </outline>
</glyph>
<glyph name="hungarumlautcomb.case" format="1">
  <advance width="600"/>
  <outline>
    <contour>
      <point x="365" y="1188" type="line"/>
      <point x="572" y="1395" type="line"/>
      <point x="462" y="1395" type="line"/>
      <point x="291" y="1188" type="line"/>
    </contour>
    <contour>
      <point x="143" y="1188" type="line"/>
      <point x="351" y="1395" type="line"/>
      <point x="241" y="1395" type="line"/>
      <point x="70" y="1188" type="line"/>
    </contour>
    <contour>
      <point x="241" y="974" type="move" name="_top"/>
    </contour>
  </outline>
</glyph>
<glyph name="macroncomb.case" format="1">
  <advance width="600"/>
  <outline>
    <contour>
      <point x="750" y="1190" type="line"/>
      <point x="750" y="1280" type="line"/>
      <point x="100" y="1280" type="line"/>
      <point x="100" y="1190" type="line"/>
    </contour>
    <contour>
      <point x="427" y="1731" type="move" name="top"/>
    </contour>
    <contour>
      <point x="415" y="974" type="move" name="_top"/>
    </contour>
  </outline>
</glyph>
<glyph name="ogonekcomb.case" format="1">
  <advance width="600"/>
  <outline>
    <contour>
      <point x="255" y="-399"/>
      <point x="286" y="-396"/>
      <point x="318" y="-391" type="curve"/>
      <point x="308" y="-307" type="line"/>
      <point x="279" y="-311"/>
      <point x="257" y="-314"/>
      <point x="248" y="-314" type="curve" smooth="yes"/>
      <point x="165" y="-314"/>
      <point x="118" y="-276"/>
      <point x="118" y="-211" type="curve" smooth="yes"/>
      <point x="118" y="-118"/>
      <point x="198" y="-58"/>
      <point x="305" y="0" type="curve"/>
      <point x="210" y="0" type="line"/>
      <point x="126" y="-30"/>
      <point x="28" y="-108"/>
      <point x="28" y="-226" type="curve" smooth="yes"/>
      <point x="28" y="-336"/>
      <point x="103" y="-399"/>
      <point x="234" y="-399" type="curve" smooth="yes"/>
    </contour>
    <contour>
      <point x="262" y="10" type="move" name="_ogonek"/>
    </contour>
  </outline>
</glyph>
<glyph name="percentZero" format="1">
  <advance width="1606"/>
  <outline>
    <contour>
      <point x="606" y="739"/>
      <point x="750" y="892"/>
      <point x="750" y="1094" type="curve" smooth="yes"/>
      <point x="750" y="1298"/>
      <point x="610" y="1452"/>
      <point x="424" y="1452" type="curve" smooth="yes"/>
      <point x="229" y="1452"/>
      <point x="82" y="1297"/>
      <point x="82" y="1092" type="curve" smooth="yes"/>
      <point x="82" y="891"/>
      <point x="225" y="739"/>
      <point x="414" y="739" type="curve" smooth="yes"/>
    </contour>
    <contour>
      <point x="278" y="819"/>
      <point x="174" y="936"/>
      <point x="174" y="1090" type="curve" smooth="yes"/>
      <point x="174" y="1250"/>
      <point x="281" y="1370"/>
      <point x="422" y="1370" type="curve" smooth="yes"/>
      <point x="557" y="1370"/>
      <point x="659" y="1252"/>
      <point x="659" y="1096" type="curve" smooth="yes"/>
      <point x="659" y="938"/>
      <point x="555" y="819"/>
      <point x="416" y="819" type="curve" smooth="yes"/>
    </contour>
  </outline>
</glyph>
<glyph name="ringcomb.case" format="1">
  <advance width="600"/>
  <outline>
    <component base="ringcomb" yOffset="445"/>
    <contour>
      <point x="299" y="1816" type="move" name="top"/>
    </contour>
    <contour>
      <point x="297" y="1434" type="move" name="_top"/>
    </contour>
  </outline>
</glyph>
